<mxfile host="app.diagrams.net" modified="2022-03-05T15:50:55.118Z" agent="5.0 (Macintosh; Intel Mac OS X 10_14_6) AppleWebKit/537.36 (KHTML, like Gecko) Chrome/98.0.4758.109 Safari/537.36" etag="HM9U60E7Fw_qlz0n44JL" version="16.6.4" type="github">
  <diagram id="5T_THyNHXHrX_4CD1U-Q" name="Page-2">
    <mxGraphModel dx="946" dy="1630" grid="1" gridSize="10" guides="1" tooltips="1" connect="1" arrows="1" fold="1" page="1" pageScale="1" pageWidth="850" pageHeight="1100" background="#B0E3E6" math="0" shadow="0">
      <root>
        <mxCell id="aAHrELg9xsdT0Ef0R614-0" />
        <mxCell id="aAHrELg9xsdT0Ef0R614-1" parent="aAHrELg9xsdT0Ef0R614-0" />
        <mxCell id="JJHdtYMbySOfqmpjJNIa-12" value="" style="whiteSpace=wrap;html=1;fillColor=none;strokeWidth=6;rounded=0;strokeColor=#FFFFFF;fontColor=#1A1A1A;glass=0;shadow=1;" parent="aAHrELg9xsdT0Ef0R614-1" vertex="1">
          <mxGeometry x="33" y="-830" width="817" height="910" as="geometry" />
        </mxCell>
        <mxCell id="JJHdtYMbySOfqmpjJNIa-11" value="" style="whiteSpace=wrap;html=1;fillColor=none;strokeWidth=3;rounded=0;strokeColor=#FFFFFF;fontColor=#1A1A1A;shadow=1;" parent="aAHrELg9xsdT0Ef0R614-1" vertex="1">
          <mxGeometry x="40" y="-779" width="490" height="799" as="geometry" />
        </mxCell>
        <mxCell id="aCi_n9hbZvkO9wYQih23-15" value="Subnet 10.0.0.0/24" style="text;html=1;resizable=0;autosize=1;align=center;verticalAlign=middle;points=[];fillColor=none;strokeColor=none;rounded=1;fontColor=#1A1A1A;" parent="aAHrELg9xsdT0Ef0R614-1" vertex="1">
          <mxGeometry x="250" width="120" height="20" as="geometry" />
        </mxCell>
        <mxCell id="JJHdtYMbySOfqmpjJNIa-69" value="" style="whiteSpace=wrap;html=1;fillColor=none;strokeWidth=3;rounded=0;strokeColor=#FFFFFF;fontColor=#1A1A1A;shadow=1;" parent="aAHrELg9xsdT0Ef0R614-1" vertex="1">
          <mxGeometry x="540" y="-779" width="300" height="799" as="geometry" />
        </mxCell>
        <mxCell id="JJHdtYMbySOfqmpjJNIa-10" value="" style="whiteSpace=wrap;html=1;fillColor=none;strokeWidth=2;rounded=0;strokeColor=#FFFFFF;fontColor=#1A1A1A;shadow=1;" parent="aAHrELg9xsdT0Ef0R614-1" vertex="1">
          <mxGeometry x="53.57" y="-320" width="466.43" height="300" as="geometry" />
        </mxCell>
        <mxCell id="JJHdtYMbySOfqmpjJNIa-14" style="edgeStyle=none;rounded=1;orthogonalLoop=1;jettySize=auto;html=1;strokeColor=#182E3E;fontColor=#1A1A1A;labelBackgroundColor=#B0E3E6;startArrow=none;" parent="aAHrELg9xsdT0Ef0R614-1" source="40kehN558C5E-bG9N4KD-3" edge="1">
          <mxGeometry relative="1" as="geometry">
            <mxPoint x="350" y="-1040" as="targetPoint" />
          </mxGeometry>
        </mxCell>
        <mxCell id="6x18IhxCGqgeIF1ldsVK-0" value="" style="shape=image;verticalLabelPosition=bottom;verticalAlign=top;aspect=fixed;imageAspect=0;image=data:image/svg+xml,PHN2ZyB4bWxuczpjYz0iaHR0cDovL2NyZWF0aXZlY29tbW9ucy5vcmcvbnMjIiB4bWxuczpkYz0iaHR0cDovL3B1cmwub3JnL2RjL2VsZW1lbnRzLzEuMS8iIHhtbG5zOmlua3NjYXBlPSJodHRwOi8vd3d3Lmlua3NjYXBlLm9yZy9uYW1lc3BhY2VzL2lua3NjYXBlIiB4bWxuczpyZGY9Imh0dHA6Ly93d3cudzMub3JnLzE5OTkvMDIvMjItcmRmLXN5bnRheC1ucyMiIHhtbG5zOnNvZGlwb2RpPSJodHRwOi8vc29kaXBvZGkuc291cmNlZm9yZ2UubmV0L0RURC9zb2RpcG9kaS0wLmR0ZCIgeG1sbnM6c3ZnPSJodHRwOi8vd3d3LnczLm9yZy8yMDAwL3N2ZyIgeG1sbnM9Imh0dHA6Ly93d3cudzMub3JnLzIwMDAvc3ZnIiB4bWxuczp4bGluaz0iaHR0cDovL3d3dy53My5vcmcvMTk5OS94bGluayIgdmVyc2lvbj0iMS4xIiBpZD0ic3ZnNTQxNCIgaW5rc2NhcGU6dmVyc2lvbj0iMC45Mi4zICgyNDA1NTQ2LCAyMDE4LTAzLTExKSIgc29kaXBvZGk6ZG9jbmFtZT0iZGV2aWNlX2xhcHRvcF8xLnN2ZyIgeD0iMHB4IiB5PSIwcHgiIHZpZXdCb3g9IjAgMCA5OC41NyA1Ny4xNiIgc3R5bGU9ImVuYWJsZS1iYWNrZ3JvdW5kOm5ldyAwIDAgOTguNTcgNTcuMTY7IiB4bWw6c3BhY2U9InByZXNlcnZlIj4mI3hhOzxzb2RpcG9kaTpuYW1lZHZpZXcgYm9yZGVyY29sb3I9IiM2NjY2NjYiIGJvcmRlcm9wYWNpdHk9IjEiIGZpdC1tYXJnaW4tYm90dG9tPSIwIiBmaXQtbWFyZ2luLWxlZnQ9IjAiIGZpdC1tYXJnaW4tcmlnaHQ9IjAiIGZpdC1tYXJnaW4tdG9wPSIwIiBncmlkdG9sZXJhbmNlPSIxMCIgZ3VpZGV0b2xlcmFuY2U9IjEwIiBpZD0ibmFtZWR2aWV3NTQxNiIgaW5rc2NhcGU6Y3VycmVudC1sYXllcj0ic3ZnNTQxNCIgaW5rc2NhcGU6Y3g9IjY1LjcxMDM1OSIgaW5rc2NhcGU6Y3k9IjM4LjEwNzkxMiIgaW5rc2NhcGU6cGFnZW9wYWNpdHk9IjAiIGlua3NjYXBlOnBhZ2VzaGFkb3c9IjIiIGlua3NjYXBlOndpbmRvdy1oZWlnaHQ9IjEwMTciIGlua3NjYXBlOndpbmRvdy1tYXhpbWl6ZWQ9IjEiIGlua3NjYXBlOndpbmRvdy13aWR0aD0iMTkyMCIgaW5rc2NhcGU6d2luZG93LXg9Ii04IiBpbmtzY2FwZTp3aW5kb3cteT0iLTgiIGlua3NjYXBlOnpvb209IjExLjM3NjM0OCIgb2JqZWN0dG9sZXJhbmNlPSIxMCIgcGFnZWNvbG9yPSIjZmZmZmZmIiBzaG93Z3JpZD0iZmFsc2UiPiYjeGE7CTwvc29kaXBvZGk6bmFtZWR2aWV3PiYjeGE7PGcgaWQ9Imc1NDEyIiB0cmFuc2Zvcm09InRyYW5zbGF0ZSgtMS41MjIzNjI3ZS00KSI+JiN4YTsJPHRpdGxlIGlkPSJ0aXRsZTUzODIiPlBhZ2UtMTwvdGl0bGU+JiN4YTsJPGcgaWQ9Imdyb3VwMzYwNS0xIj4mI3hhOwkJPHRpdGxlIGlkPSJ0aXRsZTUzODQiPkRldmljZTogTGFwdG9wICMxPC90aXRsZT4mI3hhOwkJPGcgaWQ9InNoYXBlMzYwNi0yIj4mI3hhOwkJCTx0aXRsZSBpZD0idGl0bGU1Mzg2Ij5TaGVldC4zNjA2PC90aXRsZT4mI3hhOwkJCTxwYXRoIGlkPSJwYXRoNTM4OCIgaW5rc2NhcGU6Y29ubmVjdG9yLWN1cnZhdHVyZT0iMCIgc3R5bGU9ImZpbGw6IzNGNTc2NTsiIGQ9Ik05OC4xOCw1My4zOGMtOC45NiwwLTguOTYsMC04Ljk2LDAgICAgIGMwLTAuMTUsMC4wNC0wLjI1LDAuMDQtMC40YzAtNTAuNjEsMC01MC42MSwwLTUwLjYxYzAtMS4zNC0xLjA4LTIuMzctMi4zNy0yLjM3Yy03NS4yLDAtNzUuMiwwLTc1LjIsMCAgICAgQzEwLjQsMCw5LjMyLDEuMDMsOS4zMiwyLjM3YzAsNTAuNjEsMCw1MC42MSwwLDUwLjYxYzAsMC4xNSwwLjA0LDAuMjUsMC4wNCwwLjRjLTguOTUsMC04Ljk1LDAtOC45NSwwICAgICBjLTAuMiwwLTAuNDEsMC4yLTAuNDEsMC4zOWMwLDEuMTksMCwxLjE5LDAsMS4xOWMwLDAuMTksMy4yNiwyLjIsNS4wMywyLjJjODguNTIsMCw4OC41MiwwLDg4LjUyLDBjMS44MiwwLDUuMDItMi4wMSw1LjAyLTIuMiAgICAgYzAtMS4xOSwwLTEuMTksMC0xLjE5Qzk4LjU3LDUzLjU4LDk4LjM3LDUzLjM4LDk4LjE4LDUzLjM4eiIvPiYjeGE7CQk8L2c+JiN4YTsJCTxnIGlkPSJzaGFwZTM2MDctNCIgdHJhbnNmb3JtPSJ0cmFuc2xhdGUoNDAuOTM5LC0yLjUxNjM5KSI+JiN4YTsJCQk8dGl0bGUgaWQ9InRpdGxlNTM5MSI+U2hlZXQuMzYwNzwvdGl0bGU+JiN4YTsJCQk8cGF0aCBpZD0icGF0aDUzOTMiIGlua3NjYXBlOmNvbm5lY3Rvci1jdXJ2YXR1cmU9IjAiIHN0eWxlPSJmaWxsOiM4RTlGQjA7IiBkPSJNMTYuMSw1NS44NGMwLjU5LDAsMC41OSwwLDAuNTksMCAgICAgYzAsMC43Mi0xLjE3LDEuMzItMS45NywxLjMyYy0xMi42MywwLTEyLjYzLDAtMTIuNjMsMGMtMC43NSwwLTIuMDktMC42LTIuMDktMS4zMmMwLjcxLDAsMC43MSwwLDAuNzEsMEgxNi4xeiIvPiYjeGE7CQk8L2c+JiN4YTsJCTxnIGlkPSJzaGFwZTM2MDgtNiIgdHJhbnNmb3JtPSJ0cmFuc2xhdGUoMTIuMTI1NiwtNy40MjkzNSkiPiYjeGE7CQkJPHRpdGxlIGlkPSJ0aXRsZTUzOTYiPlNoZWV0LjM2MDg8L3RpdGxlPiYjeGE7CQkJPHBhdGggaWQ9InBhdGg1Mzk4IiBpbmtzY2FwZTpjb25uZWN0b3ItY3VydmF0dXJlPSIwIiBzdHlsZT0iZmlsbDojOEQ5RkIwOyIgZD0iTTAsMTAuNzh2NDYuMzhoNzQuNDNWMTAuNzhIMHoiLz4mI3hhOwkJPC9nPiYjeGE7CQk8ZyBpZD0ic2hhcGUzNjA5LTgiIHRyYW5zZm9ybT0idHJhbnNsYXRlKDQzLjM3NzMsLTIzLjAwNykiPiYjeGE7CQkJPHRpdGxlIGlkPSJ0aXRsZTU0MDEiPlNoZWV0LjM2MDk8L3RpdGxlPiYjeGE7CQkJPHBhdGggaWQ9InBhdGg1NDAzIiBpbmtzY2FwZTpjb25uZWN0b3ItY3VydmF0dXJlPSIwIiBzdHlsZT0iZmlsbDojRkZGRkZGOyIgZD0iTTEyLjMzLDUzLjM0Yy0wLjMzLDAuNzItMC41MSwxLjA2LTAuOTUsMS43MiAgICAgYy0wLjYsMC45NC0xLjQ1LDIuMDctMi40OSwyLjFjLTAuOTQsMC0xLjItMC42NS0yLjQ0LTAuNmMtMS4yOSwwLTEuNTUsMC42LTIuNSwwLjZjLTEuMDgtMC4wMy0xLjg0LTEuMDctMi40NC0xLjk4ICAgICBjLTEuNzMtMi41OC0xLjkxLTUuNi0wLjg3LTcuMjNjMC43OC0xLjEzLDEuOTMtMS44MiwzLjAxLTEuODJjMS4xMSwwLDEuODUsMC42NiwyLjc1LDAuNjZzMS40Ny0wLjY2LDIuNzUtMC42NiAgICAgYzAuOTksMCwyLjAyLDAuNTcsMi43NiwxLjQ3QzkuNDksNDguOTMsOS44OCw1Mi4zOCwxMi4zMyw1My4zNHoiLz4mI3hhOwkJPC9nPiYjeGE7CQk8ZyBpZD0ic2hhcGUzNjEwLTEwIiB0cmFuc2Zvcm09InRyYW5zbGF0ZSg0OS4zNTkzLC0zMy45MTE0KSI+JiN4YTsJCQk8dGl0bGUgaWQ9InRpdGxlNTQwNiI+U2hlZXQuMzYxMDwvdGl0bGU+JiN4YTsJCQk8cGF0aCBpZD0icGF0aDU0MDgiIGlua3NjYXBlOmNvbm5lY3Rvci1jdXJ2YXR1cmU9IjAiIHN0eWxlPSJmaWxsOiNGRkZGRkY7IiBkPSJNMi4xOSw1NmMwLjQ2LTAuNTksMC43OS0xLjQsMC42Ny0yLjMyICAgICBjLTAuNzIsMC4wOS0xLjYsMC41Ny0yLjE0LDEuMjJjLTAuNDcsMC41NS0wLjg2LDEuNC0wLjY4LDIuMjZDMC44NCw1Ny4xNiwxLjcyLDU2LjY5LDIuMTksNTZ6Ii8+JiN4YTsJCTwvZz4mI3hhOwk8L2c+JiN4YTs8L2c+JiN4YTs8L3N2Zz4=;rounded=1;fillColor=#F08E81;strokeColor=#FFFFFF;fontColor=#1A1A1A;" parent="aAHrELg9xsdT0Ef0R614-1" vertex="1">
          <mxGeometry x="35" y="-1080" width="140" height="80.6" as="geometry" />
        </mxCell>
        <mxCell id="aCi_n9hbZvkO9wYQih23-4" value="" style="shape=image;verticalLabelPosition=bottom;verticalAlign=top;aspect=fixed;imageAspect=0;image=data:image/svg+xml,PHN2ZyB4bWxuczpjYz0iaHR0cDovL2NyZWF0aXZlY29tbW9ucy5vcmcvbnMjIiB4bWxuczpkYz0iaHR0cDovL3B1cmwub3JnL2RjL2VsZW1lbnRzLzEuMS8iIHhtbG5zOmlua3NjYXBlPSJodHRwOi8vd3d3Lmlua3NjYXBlLm9yZy9uYW1lc3BhY2VzL2lua3NjYXBlIiB4bWxuczpyZGY9Imh0dHA6Ly93d3cudzMub3JnLzE5OTkvMDIvMjItcmRmLXN5bnRheC1ucyMiIHhtbG5zOnNvZGlwb2RpPSJodHRwOi8vc29kaXBvZGkuc291cmNlZm9yZ2UubmV0L0RURC9zb2RpcG9kaS0wLmR0ZCIgeG1sbnM6c3ZnPSJodHRwOi8vd3d3LnczLm9yZy8yMDAwL3N2ZyIgeG1sbnM9Imh0dHA6Ly93d3cudzMub3JnLzIwMDAvc3ZnIiB4bWxuczp4bGluaz0iaHR0cDovL3d3dy53My5vcmcvMTk5OS94bGluayIgdmVyc2lvbj0iMS4xIiBpZD0ic3ZnNjA4MDMiIGlua3NjYXBlOnZlcnNpb249IjAuOTIuMyAoMjQwNTU0NiwgMjAxOC0wMy0xMSkiIHNvZGlwb2RpOmRvY25hbWU9ImF6dXJlX3BvcnRhbF9yZXNvdXJjZV9ncm91cHMuc3ZnIiB4PSIwcHgiIHk9IjBweCIgdmlld0JveD0iMCAwIDMwLjczIDI1LjgzIiBzdHlsZT0iZW5hYmxlLWJhY2tncm91bmQ6bmV3IDAgMCAzMC43MyAyNS44MzsiIHhtbDpzcGFjZT0icHJlc2VydmUiPiYjeGE7PHNvZGlwb2RpOm5hbWVkdmlldyBib3JkZXJjb2xvcj0iIzY2NjY2NiIgYm9yZGVyb3BhY2l0eT0iMSIgZml0LW1hcmdpbi1ib3R0b209IjAiIGZpdC1tYXJnaW4tbGVmdD0iMCIgZml0LW1hcmdpbi1yaWdodD0iMCIgZml0LW1hcmdpbi10b3A9IjAiIGdyaWR0b2xlcmFuY2U9IjEwIiBndWlkZXRvbGVyYW5jZT0iMTAiIGlkPSJuYW1lZHZpZXc2MDgwNSIgaW5rc2NhcGU6Y3VycmVudC1sYXllcj0ic3ZnNjA4MDMiIGlua3NjYXBlOmN4PSIxMi40OTE3MjQiIGlua3NjYXBlOmN5PSIxNi45Mjk2NTQiIGlua3NjYXBlOnBhZ2VvcGFjaXR5PSIwIiBpbmtzY2FwZTpwYWdlc2hhZG93PSIyIiBpbmtzY2FwZTp3aW5kb3ctaGVpZ2h0PSIxMDE3IiBpbmtzY2FwZTp3aW5kb3ctbWF4aW1pemVkPSIxIiBpbmtzY2FwZTp3aW5kb3ctd2lkdGg9IjE5MjAiIGlua3NjYXBlOndpbmRvdy14PSItOCIgaW5rc2NhcGU6d2luZG93LXk9Ii04IiBpbmtzY2FwZTp6b29tPSIxNy43OTg0MjciIG9iamVjdHRvbGVyYW5jZT0iMTAiIHBhZ2Vjb2xvcj0iI2ZmZmZmZiIgc2hvd2dyaWQ9ImZhbHNlIj4mI3hhOwk8L3NvZGlwb2RpOm5hbWVkdmlldz4mI3hhOzxnIGlkPSJnNjA4MDEiIHRyYW5zZm9ybT0idHJhbnNsYXRlKDAsLTMuNzk1ODg0NmUtNSkiPiYjeGE7CTx0aXRsZSBpZD0idGl0bGU2MDc3MSI+UGFnZS0xPC90aXRsZT4mI3hhOwk8ZyBpZD0iZ3JvdXA0MzAyLTEiPiYjeGE7CQk8dGl0bGUgaWQ9InRpdGxlNjA3NzMiPkF6dXJlIFBvcnRhbCAtIFJlc291cmNlIGdyb3VwczwvdGl0bGU+JiN4YTsJCTxnIGlkPSJzaGFwZTQzMDMtMiIgdHJhbnNmb3JtPSJ0cmFuc2xhdGUoNy41MDg3LC0xMy44NTYxKSI+JiN4YTsJCQk8dGl0bGUgaWQ9InRpdGxlNjA3NzUiPlNoZWV0LjQzMDM8L3RpdGxlPiYjeGE7CQkJPHBhdGggaWQ9InBhdGg2MDc3NyIgaW5rc2NhcGU6Y29ubmVjdG9yLWN1cnZhdHVyZT0iMCIgc3R5bGU9ImZpbGw6IzAwNzVDOTsiIGQ9Ik03LjksMjUuODNjLTAuMDQsMC0wLjA3LDAtMC4xMSwwICAgICBjLTcuNjYtNC4zNy03LjY2LTQuMzctNy42Ni00LjM3QzAuMDQsMjEuNDIsMCwyMS4zNCwwLDIxLjI1YzAtMC4wNywwLjA0LTAuMTQsMC4xMy0wLjE5YzcuNTctNC4zNCw3LjU3LTQuMzQsNy41Ny00LjM0ICAgICBjMC4wOS0wLjA1LDAuMTYtMC4wNSwwLjI1LDBjNy42NSw0LjM5LDcuNjUsNC4zOSw3LjY1LDQuMzljMC4wOSwwLjAzLDAuMTIsMC4xMSwwLjEyLDAuMTljMCwwLjA5LTAuMDMsMC4xNi0wLjEyLDAuMiAgICAgYy03LjYxLDQuMzMtNy42MSw0LjMzLTcuNjEsNC4zM0M3Ljk1LDI1LjgzLDcuOTUsMjUuODMsNy45LDI1LjgzeiIvPiYjeGE7CQk8L2c+JiN4YTsJCTxnIGlkPSJzaGFwZTQzMDQtNCIgdHJhbnNmb3JtPSJ0cmFuc2xhdGUoNi4zMzU0NywtMy4wNTMwNSkiPiYjeGE7CQkJPHRpdGxlIGlkPSJ0aXRsZTYwNzgwIj5TaGVldC40MzA0PC90aXRsZT4mI3hhOwkJCTxwYXRoIGlkPSJwYXRoNjA3ODIiIGlua3NjYXBlOmNvbm5lY3Rvci1jdXJ2YXR1cmU9IjAiIHN0eWxlPSJmaWxsOiMwMEFFRUY7IiBkPSJNNy45OCwyNS44M2MtMC4wNSwwLTAuMDktMC4wMy0wLjEzLTAuMDMgICAgIGMtNy43Mi00LjM3LTcuNzItNC4zNy03LjcyLTQuMzdDMC4wNCwyMS40LDAsMjEuMzEsMCwyMS4yNGMwLTguNzgsMC04Ljc4LDAtOC43OGMwLTAuMDksMC4wNC0wLjE2LDAuMTMtMC4yICAgICBjMC4wOC0wLjA1LDAuMTYtMC4wNSwwLjI1LDBjNy43Miw0LjM3LDcuNzIsNC4zNyw3LjcyLDQuMzdjMC4wOCwwLjAzLDAuMTEsMC4xMiwwLjExLDAuMTljMCw4Ljc4LDAsOC43OCwwLDguNzggICAgIGMwLDAuMDktMC4wMywwLjE2LTAuMTEsMC4yQzguMDUsMjUuOCw4LjAyLDI1LjgzLDcuOTgsMjUuODN6Ii8+JiN4YTsJCTwvZz4mI3hhOwkJPGcgaWQ9InNoYXBlNDMwNS02IiB0cmFuc2Zvcm09InRyYW5zbGF0ZSgxNi4xOTA2LC0zLjA1MzA1KSI+JiN4YTsJCQk8dGl0bGUgaWQ9InRpdGxlNjA3ODUiPlNoZWV0LjQzMDU8L3RpdGxlPiYjeGE7CQkJPHBhdGggaWQ9InBhdGg2MDc4NyIgaW5rc2NhcGU6Y29ubmVjdG9yLWN1cnZhdHVyZT0iMCIgc3R5bGU9ImZpbGw6IzJCQUFFMTsiIGQ9Ik0wLjI1LDI1LjgzYy0wLjA0LDAtMC4wNy0wLjAzLTAuMTItMC4wMyAgICAgQzAuMDQsMjUuNzYsMCwyNS42OSwwLDI1LjZjMC04Ljc2LDAtOC43NiwwLTguNzZjMC0wLjA4LDAuMDQtMC4xNywwLjEzLTAuMmM3LjcyLTQuMzgsNy43Mi00LjM4LDcuNzItNC4zOCAgICAgYzAuMDgtMC4wNSwwLjE3LTAuMDUsMC4yNSwwYzAuMDQsMC4wNCwwLjExLDAuMTEsMC4xMSwwLjJjMCw4Ljc2LDAsOC43NiwwLDguNzZjMCwwLjA4LTAuMDcsMC4xNy0wLjExLDAuMiAgICAgQzAuMzgsMjUuOCwwLjM4LDI1LjgsMC4zOCwyNS44QzAuMzQsMjUuOCwwLjI5LDI1LjgzLDAuMjUsMjUuODN6Ii8+JiN4YTsJCTwvZz4mI3hhOwkJPGcgaWQ9InNoYXBlNDMwNi04IiB0cmFuc2Zvcm09InRyYW5zbGF0ZSgyMy40NjQ3KSI+JiN4YTsJCQk8dGl0bGUgaWQ9InRpdGxlNjA3OTAiPlNoZWV0LjQzMDY8L3RpdGxlPiYjeGE7CQkJPHBhdGggaWQ9InBhdGg2MDc5MiIgaW5rc2NhcGU6Y29ubmVjdG9yLWN1cnZhdHVyZT0iMCIgc3R5bGU9ImZpbGw6IzkzOTU5ODsiIGQ9Ik00LjQ3LDBDMCwwLDAsMCwwLDBjMCwxLjI2LDAsMS4yNiwwLDEuMjYgICAgIGM0LjQ3LDAsNC40NywwLDQuNDcsMGMwLjg3LDAsMS41OSwwLjcyLDEuNTksMS41N2MwLDIwLjE5LDAsMjAuMTksMCwyMC4xOWMwLDAuODgtMC43MiwxLjU3LTEuNTksMS41N2MtNC40NywwLTQuNDcsMC00LjQ3LDAgICAgIGMwLDEuMjQsMCwxLjI0LDAsMS4yNGM0LjQ3LDAsNC40NywwLDQuNDcsMGMxLjU0LDAsMi44LTEuMjQsMi44LTIuODFjMC0yMC4xOSwwLTIwLjE5LDAtMjAuMTlDNy4yNywxLjMxLDYuMDEsMCw0LjQ3LDB6Ii8+JiN4YTsJCTwvZz4mI3hhOwkJPGcgaWQ9InNoYXBlNDMwNy0xMCI+JiN4YTsJCQk8dGl0bGUgaWQ9InRpdGxlNjA3OTUiPlNoZWV0LjQzMDc8L3RpdGxlPiYjeGE7CQkJPHBhdGggaWQ9InBhdGg2MDc5NyIgaW5rc2NhcGU6Y29ubmVjdG9yLWN1cnZhdHVyZT0iMCIgc3R5bGU9ImZpbGw6IzkzOTU5ODsiIGQ9Ik0yLjgyLDI0LjU5Yy0wLjg3LDAtMS41OS0wLjY5LTEuNTktMS41NyAgICAgYzAtMjAuMTksMC0yMC4xOSwwLTIwLjE5YzAtMC44NSwwLjcyLTEuNTcsMS41OS0xLjU3YzQuNDUsMCw0LjQ1LDAsNC40NSwwYzAtMS4yNiwwLTEuMjYsMC0xLjI2QzIuODIsMCwyLjgyLDAsMi44MiwwICAgICBDMS4yOCwwLDAsMS4zMSwwLDIuODNjMCwyMC4xOSwwLDIwLjE5LDAsMjAuMTljMCwxLjU3LDEuMjgsMi44MSwyLjgyLDIuODFjNC40NSwwLDQuNDUsMCw0LjQ1LDBjMC0xLjI0LDAtMS4yNCwwLTEuMjRIMi44MnoiLz4mI3hhOwkJPC9nPiYjeGE7CTwvZz4mI3hhOzwvZz4mI3hhOzwvc3ZnPg==;rounded=1;fillColor=#F08E81;strokeColor=#FFFFFF;fontColor=#1A1A1A;" parent="aAHrELg9xsdT0Ef0R614-1" vertex="1">
          <mxGeometry x="298.5" y="93" width="31" height="26" as="geometry" />
        </mxCell>
        <mxCell id="aCi_n9hbZvkO9wYQih23-6" value="Azure Resource Group: REDTEAM" style="whiteSpace=wrap;html=1;verticalAlign=top;fillColor=none;strokeColor=none;rounded=1;fontColor=#1A1A1A;fontSize=16;" parent="aAHrELg9xsdT0Ef0R614-1" vertex="1">
          <mxGeometry x="320" y="93" width="290" height="60" as="geometry" />
        </mxCell>
        <mxCell id="aCi_n9hbZvkO9wYQih23-14" value="" style="shape=image;verticalLabelPosition=bottom;verticalAlign=top;aspect=fixed;imageAspect=0;image=data:image/svg+xml,PHN2ZyB4bWxuczpjYz0iaHR0cDovL2NyZWF0aXZlY29tbW9ucy5vcmcvbnMjIiB4bWxuczpkYz0iaHR0cDovL3B1cmwub3JnL2RjL2VsZW1lbnRzLzEuMS8iIHhtbG5zOmlua3NjYXBlPSJodHRwOi8vd3d3Lmlua3NjYXBlLm9yZy9uYW1lc3BhY2VzL2lua3NjYXBlIiB4bWxuczpyZGY9Imh0dHA6Ly93d3cudzMub3JnLzE5OTkvMDIvMjItcmRmLXN5bnRheC1ucyMiIHhtbG5zOnNvZGlwb2RpPSJodHRwOi8vc29kaXBvZGkuc291cmNlZm9yZ2UubmV0L0RURC9zb2RpcG9kaS0wLmR0ZCIgeG1sbnM6c3ZnPSJodHRwOi8vd3d3LnczLm9yZy8yMDAwL3N2ZyIgeG1sbnM9Imh0dHA6Ly93d3cudzMub3JnLzIwMDAvc3ZnIiB4bWxuczp4bGluaz0iaHR0cDovL3d3dy53My5vcmcvMTk5OS94bGluayIgdmVyc2lvbj0iMS4xIiBpZD0ic3ZnOTkyNDkiIGlua3NjYXBlOnZlcnNpb249IjAuOTIuMyAoMjQwNTU0NiwgMjAxOC0wMy0xMSkiIHNvZGlwb2RpOmRvY25hbWU9InN1Ym5ldHMuc3ZnIiB4PSIwcHgiIHk9IjBweCIgdmlld0JveD0iMCAwIDM0Ljg0IDIxLjYxIiBzdHlsZT0iZW5hYmxlLWJhY2tncm91bmQ6bmV3IDAgMCAzNC44NCAyMS42MTsiIHhtbDpzcGFjZT0icHJlc2VydmUiPiYjeGE7PHNvZGlwb2RpOm5hbWVkdmlldyBib3JkZXJjb2xvcj0iIzY2NjY2NiIgYm9yZGVyb3BhY2l0eT0iMSIgZml0LW1hcmdpbi1ib3R0b209IjAiIGZpdC1tYXJnaW4tbGVmdD0iMCIgZml0LW1hcmdpbi1yaWdodD0iMCIgZml0LW1hcmdpbi10b3A9IjAiIGdyaWR0b2xlcmFuY2U9IjEwIiBndWlkZXRvbGVyYW5jZT0iMTAiIGlkPSJuYW1lZHZpZXc5OTI1MSIgaW5rc2NhcGU6Y3VycmVudC1sYXllcj0ic3ZnOTkyNDkiIGlua3NjYXBlOmN4PSI0MC45MTcxNDUiIGlua3NjYXBlOmN5PSIwLjYzNzUyNTg2IiBpbmtzY2FwZTpwYWdlb3BhY2l0eT0iMCIgaW5rc2NhcGU6cGFnZXNoYWRvdz0iMiIgaW5rc2NhcGU6d2luZG93LWhlaWdodD0iMTAxNyIgaW5rc2NhcGU6d2luZG93LW1heGltaXplZD0iMSIgaW5rc2NhcGU6d2luZG93LXdpZHRoPSIxOTIwIiBpbmtzY2FwZTp3aW5kb3cteD0iLTgiIGlua3NjYXBlOndpbmRvdy15PSItOCIgaW5rc2NhcGU6em9vbT0iMTAuNjM5NDk0IiBvYmplY3R0b2xlcmFuY2U9IjEwIiBwYWdlY29sb3I9IiNmZmZmZmYiIHNob3dncmlkPSJmYWxzZSI+JiN4YTsJPC9zb2RpcG9kaTpuYW1lZHZpZXc+JiN4YTs8ZyBpZD0iZzk5MjQ3IiB0cmFuc2Zvcm09InRyYW5zbGF0ZSgtNC4yMzMxNzQ5ZS01KSI+JiN4YTsJPHRpdGxlIGlkPSJ0aXRsZTk5MjI3Ij5QYWdlLTE8L3RpdGxlPiYjeGE7CTxnIGlkPSJncm91cDQ2NTQtMSI+JiN4YTsJCTx0aXRsZSBpZD0idGl0bGU5OTIyOSI+U3VibmV0czwvdGl0bGU+JiN4YTsJCTxnIGlkPSJzaGFwZTQ2NTUtMiIgdHJhbnNmb3JtPSJ0cmFuc2xhdGUoMjIuNjEzKSI+JiN4YTsJCQk8dGl0bGUgaWQ9InRpdGxlOTkyMzEiPlNoZWV0LjQ2NTU8L3RpdGxlPiYjeGE7CQkJPHBhdGggaWQ9InBhdGg5OTIzMyIgaW5rc2NhcGU6Y29ubmVjdG9yLWN1cnZhdHVyZT0iMCIgc3R5bGU9ImZpbGw6IzM5OTlDNjsiIGQ9Ik0xMi4yMywxMC42OEw5Ljg0LDguMjlMMS4zOSwwTDAsMS4yNmw5LjU4LDkuNDIgICAgIEwwLDIwLjM1bDEuMzksMS4yNmw4LjQ1LTguM0wxMi4yMywxMC42OHoiLz4mI3hhOwkJPC9nPiYjeGE7CQk8ZyBpZD0ic2hhcGU0NjU2LTQiPiYjeGE7CQkJPHRpdGxlIGlkPSJ0aXRsZTk5MjM2Ij5TaGVldC40NjU2PC90aXRsZT4mI3hhOwkJCTxwYXRoIGlkPSJwYXRoOTkyMzgiIGlua3NjYXBlOmNvbm5lY3Rvci1jdXJ2YXR1cmU9IjAiIHN0eWxlPSJmaWxsOiMzOTk5QzY7IiBkPSJNMCwxMC42OGwyLjM5LTIuMzlMMTAuODQsMGwxLjM5LDEuMjYgICAgIGwtOS41OCw5LjQybDkuNTgsOS42N2wtMS4zOSwxLjI2bC04LjQ1LTguM0wwLDEwLjY4eiIvPiYjeGE7CQk8L2c+JiN4YTsJCTxnIGlkPSJzaGFwZTQ2NTctNiIgdHJhbnNmb3JtPSJ0cmFuc2xhdGUoMTQuODY4NSwtOC41MzE5NykiPiYjeGE7CQkJPHRpdGxlIGlkPSJ0aXRsZTk5MjQxIj5TaGVldC40NjU3PC90aXRsZT4mI3hhOwkJCTxwYXRoIGlkPSJwYXRoOTkyNDMiIGlua3NjYXBlOmNvbm5lY3Rvci1jdXJ2YXR1cmU9IjAiIHN0eWxlPSJmaWxsOiM3RkJBMDA7IiBkPSJNNC45MSwxOS4yMWMwLDEuMzgtMS4xMywyLjQtMi4zOSwyLjQgICAgIFMwLDIwLjQ2LDAsMTkuMjFjMC0xLjI2LDEuMTMtMi4zOCwyLjUyLTIuMzhTNC45MSwxNy45NSw0LjkxLDE5LjIxeiIvPiYjeGE7CQk8L2c+JiN4YTsJPC9nPiYjeGE7PC9nPiYjeGE7PC9zdmc+;fillColor=none;rounded=1;strokeColor=#FFFFFF;fontColor=#1A1A1A;" parent="aAHrELg9xsdT0Ef0R614-1" vertex="1">
          <mxGeometry x="230.91" y="4" width="19.09" height="12" as="geometry" />
        </mxCell>
        <mxCell id="1ri4OHAr348HlT4nF62w-0" value="" style="shape=image;verticalLabelPosition=bottom;verticalAlign=top;aspect=fixed;imageAspect=0;image=data:image/svg+xml,PHN2ZyB4bWxuczpjYz0iaHR0cDovL2NyZWF0aXZlY29tbW9ucy5vcmcvbnMjIiB4bWxuczpkYz0iaHR0cDovL3B1cmwub3JnL2RjL2VsZW1lbnRzLzEuMS8iIHhtbG5zOmlua3NjYXBlPSJodHRwOi8vd3d3Lmlua3NjYXBlLm9yZy9uYW1lc3BhY2VzL2lua3NjYXBlIiB4bWxuczpyZGY9Imh0dHA6Ly93d3cudzMub3JnLzE5OTkvMDIvMjItcmRmLXN5bnRheC1ucyMiIHhtbG5zOnNvZGlwb2RpPSJodHRwOi8vc29kaXBvZGkuc291cmNlZm9yZ2UubmV0L0RURC9zb2RpcG9kaS0wLmR0ZCIgeG1sbnM6c3ZnPSJodHRwOi8vd3d3LnczLm9yZy8yMDAwL3N2ZyIgeG1sbnM9Imh0dHA6Ly93d3cudzMub3JnLzIwMDAvc3ZnIiB4bWxuczp4bGluaz0iaHR0cDovL3d3dy53My5vcmcvMTk5OS94bGluayIgdmVyc2lvbj0iMS4xIiBpZD0ic3ZnNjEzNCIgaW5rc2NhcGU6dmVyc2lvbj0iMC45Mi4zICgyNDA1NTQ2LCAyMDE4LTAzLTExKSIgc29kaXBvZGk6ZG9jbmFtZT0idmlydHVhbF9uZXR3b3JrXzEuc3ZnIiB4PSIwcHgiIHk9IjBweCIgdmlld0JveD0iMCAwIDM0LjYxIDE5Ljg1IiBzdHlsZT0iZW5hYmxlLWJhY2tncm91bmQ6bmV3IDAgMCAzNC42MSAxOS44NTsiIHhtbDpzcGFjZT0icHJlc2VydmUiPiYjeGE7PHNvZGlwb2RpOm5hbWVkdmlldyBib3JkZXJjb2xvcj0iIzY2NjY2NiIgYm9yZGVyb3BhY2l0eT0iMSIgZml0LW1hcmdpbi1ib3R0b209IjAiIGZpdC1tYXJnaW4tbGVmdD0iMCIgZml0LW1hcmdpbi1yaWdodD0iMCIgZml0LW1hcmdpbi10b3A9IjAiIGdyaWR0b2xlcmFuY2U9IjEwIiBndWlkZXRvbGVyYW5jZT0iMTAiIGlkPSJuYW1lZHZpZXc2MTM2IiBpbmtzY2FwZTpjdXJyZW50LWxheWVyPSJzdmc2MTM0IiBpbmtzY2FwZTpjeD0iMjMuMDc1MjcxIiBpbmtzY2FwZTpjeT0iMTMuMjMyNTUiIGlua3NjYXBlOnBhZ2VvcGFjaXR5PSIwIiBpbmtzY2FwZTpwYWdlc2hhZG93PSIyIiBpbmtzY2FwZTp3aW5kb3ctaGVpZ2h0PSIxMDE3IiBpbmtzY2FwZTp3aW5kb3ctbWF4aW1pemVkPSIxIiBpbmtzY2FwZTp3aW5kb3ctd2lkdGg9IjE5MjAiIGlua3NjYXBlOndpbmRvdy14PSItOCIgaW5rc2NhcGU6d2luZG93LXk9Ii04IiBpbmtzY2FwZTp6b29tPSIxNC42Njg5NzgiIG9iamVjdHRvbGVyYW5jZT0iMTAiIHBhZ2Vjb2xvcj0iI2ZmZmZmZiIgc2hvd2dyaWQ9ImZhbHNlIj4mI3hhOwk8L3NvZGlwb2RpOm5hbWVkdmlldz4mI3hhOzxnIGlkPSJnNjEzMiIgdHJhbnNmb3JtPSJ0cmFuc2xhdGUoLTEyLjI0MTQ2MSwtMTIuMjM5MSkiPiYjeGE7CTx0aXRsZSBpZD0idGl0bGU2MTAyIj5QYWdlLTE8L3RpdGxlPiYjeGE7CTxnIGlkPSJncm91cDk1MDctMSIgdHJhbnNmb3JtPSJ0cmFuc2xhdGUoMTIuMTI4NCwtMTIuMTI4NCkiPiYjeGE7CQk8dGl0bGUgaWQ9InRpdGxlNjEwNCI+VmlydHVhbCBOZXR3b3JrICMxPC90aXRsZT4mI3hhOwkJPGcgaWQ9InNoYXBlOTUwOC0yIiB0cmFuc2Zvcm09InRyYW5zbGF0ZSgyMy43MDk5KSI+JiN4YTsJCQk8dGl0bGUgaWQ9InRpdGxlNjEwNiI+U2hlZXQuOTUwODwvdGl0bGU+JiN4YTsJCQk8cGF0aCBpZD0icGF0aDYxMDgiIGlua3NjYXBlOmNvbm5lY3Rvci1jdXJ2YXR1cmU9IjAiIHN0eWxlPSJmaWxsOiMzOTk5QzY7IiBkPSJNMTAuNzgsMzQuNzljMC4zNS0wLjM1LDAuMjgtMC45LDAtMS4yNSAgICAgbC0xLjY2LTEuNjVsLTcuNDYtNy4yNmMtMC4zNS0wLjM1LTAuODMtMC4zNS0xLjE4LDBjLTAuMzQsMC4zNC0wLjQxLDAuOSwwLDEuMjRsNy44Miw3LjY3YzAuMzQsMC4zNSwwLjM0LDAuOSwwLDEuMjVsLTcuOTUsNy45NSAgICAgYy0wLjM1LDAuMzQtMC4zNSwwLjksMCwxLjI0YzAuMzQsMC4zNSwwLjg5LDAuMjgsMS4xNywwbDcuNC03LjMyYzAsMCwwLDAsMC4wNy0wLjA3TDEwLjc4LDM0Ljc5eiIvPiYjeGE7CQk8L2c+JiN4YTsJCTxnIGlkPSJzaGFwZTk1MDktNCI+JiN4YTsJCQk8dGl0bGUgaWQ9InRpdGxlNjExMSI+U2hlZXQuOTUwOTwvdGl0bGU+JiN4YTsJCQk8cGF0aCBpZD0icGF0aDYxMTMiIGlua3NjYXBlOmNvbm5lY3Rvci1jdXJ2YXR1cmU9IjAiIHN0eWxlPSJmaWxsOiMzOTk5QzY7IiBkPSJNMC4zNSwzNC43OWMtMC4zNS0wLjM1LTAuMjgtMC45LDAtMS4yNUwyLDMxLjg5ICAgICBsNy40Ny03LjI2YzAuMzUtMC4zNSwwLjgzLTAuMzUsMS4xOCwwYzAuMzQsMC4zNCwwLjQxLDAuOSwwLDEuMjRsLTcuNjgsNy42N2MtMC4zNCwwLjM1LTAuMzQsMC45LDAsMS4yNWw3LjgxLDcuOTUgICAgIGMwLjM1LDAuMzQsMC4zNSwwLjksMCwxLjI0Yy0wLjM0LDAuMzUtMC45LDAuMjgtMS4xNywwbC03LjU0LTcuMjZjMCwwLDAsMC0wLjA3LTAuMDZMMC4zNSwzNC43OXoiLz4mI3hhOwkJPC9nPiYjeGE7CQk8ZyBpZD0ic2hhcGU5NTEwLTYiIHRyYW5zZm9ybT0idHJhbnNsYXRlKDguMDE4NTEsLTcuODgwMjYpIj4mI3hhOwkJCTx0aXRsZSBpZD0idGl0bGU2MTE2Ij5TaGVldC45NTEwPC90aXRsZT4mI3hhOwkJCTxwYXRoIGlkPSJwYXRoNjExOCIgaW5rc2NhcGU6Y29ubmVjdG9yLWN1cnZhdHVyZT0iMCIgc3R5bGU9ImZpbGw6IzdGQkEwMDsiIGQ9Ik00LjcsNDIuMDVjMCwxLjMxLTEuMTEsMi4yOC0yLjI4LDIuMjggICAgIEMxLjI0LDQ0LjMzLDAsNDMuMjIsMCw0Mi4wNWMwLTEuMTgsMC45Ny0yLjI4LDIuNDItMi4yOEMzLjgsMzkuNzcsNC43LDQwLjg3LDQuNyw0Mi4wNXoiLz4mI3hhOwkJPC9nPiYjeGE7CQk8ZyBpZD0ic2hhcGU5NTExLTgiIHRyYW5zZm9ybT0idHJhbnNsYXRlKDE1LjAwMDEsLTcuODgwMjYpIj4mI3hhOwkJCTx0aXRsZSBpZD0idGl0bGU2MTIxIj5TaGVldC45NTExPC90aXRsZT4mI3hhOwkJCTxwYXRoIGlkPSJwYXRoNjEyMyIgaW5rc2NhcGU6Y29ubmVjdG9yLWN1cnZhdHVyZT0iMCIgc3R5bGU9ImZpbGw6IzdGQkEwMDsiIGQ9Ik00LjcsNDIuMDVjMCwxLjMxLTEuMTEsMi4yOC0yLjI4LDIuMjggICAgIEMxLjI0LDQ0LjMzLDAsNDMuMjIsMCw0Mi4wNWMwLTEuMTgsMS4xMS0yLjI4LDIuNDItMi4yOFM0LjcsNDAuODcsNC43LDQyLjA1eiIvPiYjeGE7CQk8L2c+JiN4YTsJCTxnIGlkPSJzaGFwZTk1MTItMTAiIHRyYW5zZm9ybT0idHJhbnNsYXRlKDIyLjE4OTIsLTcuODgwMjYpIj4mI3hhOwkJCTx0aXRsZSBpZD0idGl0bGU2MTI2Ij5TaGVldC45NTEyPC90aXRsZT4mI3hhOwkJCTxjaXJjbGUgaWQ9ImVsbGlwc2U2MTI4IiBzdHlsZT0iZmlsbDojN0ZCQTAwOyIgY3g9IjIuMjgiIGN5PSI0Mi4wNSIgcj0iMi4yOCIvPiYjeGE7CQk8L2c+JiN4YTsJPC9nPiYjeGE7PC9nPiYjeGE7PC9zdmc+;rounded=1;fillColor=#F08E81;strokeColor=#FFFFFF;fontColor=#1A1A1A;" parent="aAHrELg9xsdT0Ef0R614-1" vertex="1">
          <mxGeometry x="142.14" y="29.39" width="32.86" height="18.78" as="geometry" />
        </mxCell>
        <mxCell id="_N8QVy7_EqHjxUrUgRW7-2" value="Web-2" style="text;html=1;resizable=0;autosize=1;align=center;verticalAlign=middle;points=[];fillColor=none;strokeColor=none;rounded=1;fontColor=#1A1A1A;" parent="aAHrELg9xsdT0Ef0R614-1" vertex="1">
          <mxGeometry x="379.99999999999994" y="-91.87" width="50" height="20" as="geometry" />
        </mxCell>
        <mxCell id="JJHdtYMbySOfqmpjJNIa-0" value="" style="aspect=fixed;html=1;points=[];align=center;image;fontSize=12;image=img/lib/mscae/Docker.svg;fillColor=none;rounded=1;strokeColor=#FFFFFF;fontColor=#1A1A1A;labelBackgroundColor=#B0E3E6;" parent="aAHrELg9xsdT0Ef0R614-1" vertex="1">
          <mxGeometry x="200.00000000000003" y="-230" width="60.97" height="50" as="geometry" />
        </mxCell>
        <mxCell id="JJHdtYMbySOfqmpjJNIa-2" value="Web-1" style="text;html=1;resizable=0;autosize=1;align=center;verticalAlign=middle;points=[];fillColor=none;strokeColor=none;rounded=1;fontColor=#1A1A1A;" parent="aAHrELg9xsdT0Ef0R614-1" vertex="1">
          <mxGeometry x="82.14" y="-91.87" width="50" height="20" as="geometry" />
        </mxCell>
        <mxCell id="JJHdtYMbySOfqmpjJNIa-3" value="" style="shape=image;verticalLabelPosition=bottom;verticalAlign=top;aspect=fixed;imageAspect=0;image=data:image/svg+xml,PHN2ZyB4bWxuczpkYz0iaHR0cDovL3B1cmwub3JnL2RjL2VsZW1lbnRzLzEuMS8iIHhtbG5zOmNjPSJodHRwOi8vY3JlYXRpdmVjb21tb25zLm9yZy9ucyMiIHhtbG5zOnJkZj0iaHR0cDovL3d3dy53My5vcmcvMTk5OS8wMi8yMi1yZGYtc3ludGF4LW5zIyIgeG1sbnM6c3ZnPSJodHRwOi8vd3d3LnczLm9yZy8yMDAwL3N2ZyIgeG1sbnM9Imh0dHA6Ly93d3cudzMub3JnLzIwMDAvc3ZnIiB4bWxuczp4bGluaz0iaHR0cDovL3d3dy53My5vcmcvMTk5OS94bGluayIgeG1sbnM6c29kaXBvZGk9Imh0dHA6Ly9zb2RpcG9kaS5zb3VyY2Vmb3JnZS5uZXQvRFREL3NvZGlwb2RpLTAuZHRkIiB4bWxuczppbmtzY2FwZT0iaHR0cDovL3d3dy5pbmtzY2FwZS5vcmcvbmFtZXNwYWNlcy9pbmtzY2FwZSIgdmVyc2lvbj0iMS4xIiBpZD0iTGF5ZXJfMSIgeD0iMHB4IiB5PSIwcHgiIHZpZXdCb3g9IjAgMCA0NC4zNCA0NS44NCIgeG1sOnNwYWNlPSJwcmVzZXJ2ZSIgc29kaXBvZGk6ZG9jbmFtZT0iYW5zaWJsZS5zdmciIHdpZHRoPSI0NC4zNCIgaGVpZ2h0PSI0NS44NCIgaW5rc2NhcGU6dmVyc2lvbj0iMC45Mi4zICgyNDA1NTQ2LCAyMDE4LTAzLTExKSI+PG1ldGFkYXRhIGlkPSJtZXRhZGF0YTI5OTU2Ij48cmRmOlJERj48Y2M6V29yayByZGY6YWJvdXQ9IiI+PGRjOmZvcm1hdD5pbWFnZS9zdmcreG1sPC9kYzpmb3JtYXQ+PGRjOnR5cGUgcmRmOnJlc291cmNlPSJodHRwOi8vcHVybC5vcmcvZGMvZGNtaXR5cGUvU3RpbGxJbWFnZSIvPjxkYzp0aXRsZS8+PC9jYzpXb3JrPjwvcmRmOlJERj48L21ldGFkYXRhPjxkZWZzIGlkPSJkZWZzMjk5NTQiLz48c29kaXBvZGk6bmFtZWR2aWV3IHBhZ2Vjb2xvcj0iI2ZmZmZmZiIgYm9yZGVyY29sb3I9IiM2NjY2NjYiIGJvcmRlcm9wYWNpdHk9IjEiIG9iamVjdHRvbGVyYW5jZT0iMTAiIGdyaWR0b2xlcmFuY2U9IjEwIiBndWlkZXRvbGVyYW5jZT0iMTAiIGlua3NjYXBlOnBhZ2VvcGFjaXR5PSIwIiBpbmtzY2FwZTpwYWdlc2hhZG93PSIyIiBpbmtzY2FwZTp3aW5kb3ctd2lkdGg9IjE5MjAiIGlua3NjYXBlOndpbmRvdy1oZWlnaHQ9IjEwMTciIGlkPSJuYW1lZHZpZXcyOTk1MiIgc2hvd2dyaWQ9ImZhbHNlIiBmaXQtbWFyZ2luLXRvcD0iMCIgZml0LW1hcmdpbi1sZWZ0PSIwIiBmaXQtbWFyZ2luLXJpZ2h0PSIwIiBmaXQtbWFyZ2luLWJvdHRvbT0iMCIgaW5rc2NhcGU6em9vbT0iMS4wMzAzMDMiIGlua3NjYXBlOmN4PSIyNTQuMzU1IiBpbmtzY2FwZTpjeT0iLTE3Ny43NyIgaW5rc2NhcGU6d2luZG93LXg9Ii04IiBpbmtzY2FwZTp3aW5kb3cteT0iLTgiIGlua3NjYXBlOndpbmRvdy1tYXhpbWl6ZWQ9IjEiIGlua3NjYXBlOmN1cnJlbnQtbGF5ZXI9IkxheWVyXzEiLz4mI3hhOyYjeGE7PGcgaWQ9ImcyOTk0OSIgdHJhbnNmb3JtPSJ0cmFuc2xhdGUoLTQzLjAyLC0xOTcuMTQpIj4mI3hhOwk8ZGVmcyBpZD0iZGVmczI5OTMyIj4mI3hhOwkJPHJlY3QgaWQ9IlNWR0lEXzNfIiB4PSI0MC4yNSIgeT0iMTk0Ljc0MDAxIiB3aWR0aD0iNTAuOTkwMDAyIiBoZWlnaHQ9IjUwLjk5MDAwMiIvPiYjeGE7CTwvZGVmcz4mI3hhOwk8Y2xpcFBhdGggaWQ9IlNWR0lEXzRfIj4mI3hhOwkJPHVzZSB4bGluazpocmVmPSIjU1ZHSURfM18iIHN0eWxlPSJvdmVyZmxvdzp2aXNpYmxlIiBpZD0idXNlMjk5MzQiIHg9IjAiIHk9IjAiIHdpZHRoPSIxMDAlIiBoZWlnaHQ9IjEwMCUiLz4mI3hhOwk8L2NsaXBQYXRoPiYjeGE7CTxnIGNsaXAtcGF0aD0idXJsKCNTVkdJRF80XykiIGlkPSJnMjk5NDciPiYjeGE7CQk8ZGVmcyBpZD0iZGVmczI5OTM4Ij4mI3hhOwkJCTxyZWN0IGlkPSJTVkdJRF81XyIgeD0iNDAuMjUiIHk9IjE5NC43NSIgd2lkdGg9IjUxIiBoZWlnaHQ9IjUwLjk5MDAwMiIvPiYjeGE7CQk8L2RlZnM+JiN4YTsJCTxjbGlwUGF0aCBpZD0iU1ZHSURfNl8iPiYjeGE7CQkJPHVzZSB4bGluazpocmVmPSIjU1ZHSURfNV8iIHN0eWxlPSJvdmVyZmxvdzp2aXNpYmxlIiBpZD0idXNlMjk5NDAiIHg9IjAiIHk9IjAiIHdpZHRoPSIxMDAlIiBoZWlnaHQ9IjEwMCUiLz4mI3hhOwkJPC9jbGlwUGF0aD4mI3hhOwkJPHBhdGggc3R5bGU9ImZpbGw6I2NjMDAwMCIgZD0ibSA4Ny4zNiwyMjAuMDMgYyAwLDEyLjcgLTkuODksMjIuOTUgLTIyLjE3LDIyLjk1IC0xMi4yMywwIC0yMi4xNywtMTAuMjUgLTIyLjE3LC0yMi45NSAwLC0xMi42NCA5Ljk1LC0yMi44OSAyMi4xNywtMjIuODkgMTIuMjgsMCAyMi4xNywxMC4yNSAyMi4xNywyMi44OSB6IiBjbGlwLXBhdGg9InVybCgjU1ZHSURfNl8pIiBpZD0icGF0aDI5OTQzIiBpbmtzY2FwZTpjb25uZWN0b3ItY3VydmF0dXJlPSIwIi8+JiN4YTsJCTxwYXRoIHN0eWxlPSJmaWxsOiNmZmZmZmYiIGQ9Im0gNjQuODgsMjA5LjAxIDYuNTMsMTYuNDggLTkuODksLTcuOTcgeiBtIDExLjU3LDIwLjI1IC0xMC4wMSwtMjQuNzUgYyAtMC4zLC0wLjcyIC0wLjksLTEuMDggLTEuNTYsLTEuMDggLTAuNzIsMCAtMS4zMiwwLjM2IC0xLjYyLDEuMDggbCAtMTEuMDMsMjcuMTUgaCAzLjc4IGwgNC4zNywtMTEuMTUgMTMsMTAuNzMgYyAwLjU0LDAuNDggMC45LDAuNjYgMS40NCwwLjY2IDAuOTYsMCAxLjg2LC0wLjc4IDEuODYsLTEuODYgMC4wMSwtMC4xOCAtMC4xMSwtMC40MiAtMC4yMywtMC43OCIgY2xpcC1wYXRoPSJ1cmwoI1NWR0lEXzZfKSIgaWQ9InBhdGgyOTk0NSIgaW5rc2NhcGU6Y29ubmVjdG9yLWN1cnZhdHVyZT0iMCIvPiYjeGE7CTwvZz4mI3hhOzwvZz4mI3hhOzwvc3ZnPg==;fillColor=none;rounded=1;strokeColor=#FFFFFF;fontColor=#1A1A1A;" parent="aAHrELg9xsdT0Ef0R614-1" vertex="1">
          <mxGeometry x="173.57" y="-517.36" width="30" height="31.36" as="geometry" />
        </mxCell>
        <mxCell id="JJHdtYMbySOfqmpjJNIa-15" style="edgeStyle=none;rounded=1;orthogonalLoop=1;jettySize=auto;html=1;exitX=0.5;exitY=0;exitDx=0;exitDy=0;strokeColor=#182E3E;fontColor=#1A1A1A;labelBackgroundColor=#B0E3E6;" parent="aAHrELg9xsdT0Ef0R614-1" source="JJHdtYMbySOfqmpjJNIa-12" target="JJHdtYMbySOfqmpjJNIa-12" edge="1">
          <mxGeometry relative="1" as="geometry" />
        </mxCell>
        <mxCell id="-fyCOlzWIuNnIxvk7xNq-8" style="edgeStyle=elbowEdgeStyle;rounded=1;orthogonalLoop=1;jettySize=auto;elbow=vertical;html=1;exitX=0.5;exitY=1;exitDx=0;exitDy=0;exitPerimeter=0;fontSize=14;startArrow=none;" parent="aAHrELg9xsdT0Ef0R614-1" source="-fyCOlzWIuNnIxvk7xNq-10" target="JJHdtYMbySOfqmpjJNIa-22" edge="1">
          <mxGeometry relative="1" as="geometry" />
        </mxCell>
        <mxCell id="-fyCOlzWIuNnIxvk7xNq-9" style="edgeStyle=elbowEdgeStyle;rounded=1;orthogonalLoop=1;jettySize=auto;elbow=vertical;html=1;entryX=0.5;entryY=0;entryDx=0;entryDy=0;entryPerimeter=0;fontSize=14;exitX=0.594;exitY=0.997;exitDx=0;exitDy=0;exitPerimeter=0;startArrow=none;" parent="aAHrELg9xsdT0Ef0R614-1" source="-fyCOlzWIuNnIxvk7xNq-12" target="JJHdtYMbySOfqmpjJNIa-85" edge="1">
          <mxGeometry relative="1" as="geometry">
            <mxPoint x="460" y="-980" as="sourcePoint" />
          </mxGeometry>
        </mxCell>
        <mxCell id="JJHdtYMbySOfqmpjJNIa-16" value="" style="outlineConnect=0;dashed=0;verticalLabelPosition=bottom;verticalAlign=top;align=center;html=1;shape=mxgraph.aws3.internet_3;rounded=1;fillColor=#F08E81;strokeColor=#FFFFFF;fontColor=#1A1A1A;" parent="aAHrELg9xsdT0Ef0R614-1" vertex="1">
          <mxGeometry x="360" y="-1094.7" width="170" height="110" as="geometry" />
        </mxCell>
        <mxCell id="-fyCOlzWIuNnIxvk7xNq-18" style="edgeStyle=elbowEdgeStyle;rounded=1;orthogonalLoop=1;jettySize=auto;elbow=vertical;html=1;exitX=0.453;exitY=1;exitDx=0;exitDy=0;exitPerimeter=0;fontSize=14;startArrow=none;" parent="aAHrELg9xsdT0Ef0R614-1" source="aCi_n9hbZvkO9wYQih23-13" target="JJHdtYMbySOfqmpjJNIa-27" edge="1">
          <mxGeometry relative="1" as="geometry">
            <Array as="points">
              <mxPoint x="118" y="-575" />
            </Array>
          </mxGeometry>
        </mxCell>
        <mxCell id="-fyCOlzWIuNnIxvk7xNq-31" style="edgeStyle=elbowEdgeStyle;rounded=1;orthogonalLoop=1;jettySize=auto;elbow=vertical;html=1;exitX=0.5;exitY=1;exitDx=0;exitDy=0;exitPerimeter=0;fontSize=14;startArrow=none;" parent="aAHrELg9xsdT0Ef0R614-1" source="aCi_n9hbZvkO9wYQih23-16" target="JJHdtYMbySOfqmpjJNIa-31" edge="1">
          <mxGeometry relative="1" as="geometry">
            <Array as="points" />
          </mxGeometry>
        </mxCell>
        <mxCell id="-fyCOlzWIuNnIxvk7xNq-36" style="edgeStyle=elbowEdgeStyle;rounded=1;orthogonalLoop=1;jettySize=auto;elbow=vertical;html=1;fontSize=10;startArrow=none;" parent="aAHrELg9xsdT0Ef0R614-1" source="JJHdtYMbySOfqmpjJNIa-136" target="aCi_n9hbZvkO9wYQih23-13" edge="1">
          <mxGeometry relative="1" as="geometry">
            <Array as="points">
              <mxPoint x="120" y="-700" />
            </Array>
          </mxGeometry>
        </mxCell>
        <mxCell id="JJHdtYMbySOfqmpjJNIa-22" value="" style="verticalAlign=top;verticalLabelPosition=bottom;labelPosition=center;align=center;html=1;outlineConnect=0;gradientDirection=north;strokeWidth=9;shape=mxgraph.networks.firewall;rounded=1;fillColor=#F08E81;strokeColor=#FFFFFF;fontColor=#1A1A1A;gradientColor=none;shadow=0;" parent="aAHrELg9xsdT0Ef0R614-1" vertex="1">
          <mxGeometry x="190" y="-855" width="140" height="115" as="geometry" />
        </mxCell>
        <mxCell id="-fyCOlzWIuNnIxvk7xNq-39" style="edgeStyle=elbowEdgeStyle;orthogonalLoop=1;jettySize=auto;elbow=vertical;html=1;fontSize=10;rounded=1;startArrow=none;exitX=0.457;exitY=1.1;exitDx=0;exitDy=0;exitPerimeter=0;" parent="aAHrELg9xsdT0Ef0R614-1" source="-fyCOlzWIuNnIxvk7xNq-50" target="JJHdtYMbySOfqmpjJNIa-30" edge="1">
          <mxGeometry relative="1" as="geometry">
            <mxPoint x="90" y="-310" as="sourcePoint" />
            <mxPoint x="120" y="-280" as="targetPoint" />
            <Array as="points">
              <mxPoint x="123" y="-300" />
            </Array>
          </mxGeometry>
        </mxCell>
        <mxCell id="-fyCOlzWIuNnIxvk7xNq-40" style="edgeStyle=elbowEdgeStyle;orthogonalLoop=1;jettySize=auto;elbow=vertical;html=1;fontSize=10;rounded=1;startArrow=none;" parent="aAHrELg9xsdT0Ef0R614-1" source="-fyCOlzWIuNnIxvk7xNq-46" edge="1">
          <mxGeometry relative="1" as="geometry">
            <mxPoint x="370" y="-280" as="targetPoint" />
            <Array as="points">
              <mxPoint x="330" y="-360" />
              <mxPoint x="270" y="-350" />
              <mxPoint x="360" y="-330" />
              <mxPoint x="290" y="-340" />
              <mxPoint x="260" y="-290" />
              <mxPoint x="260" y="-310" />
              <mxPoint x="200" y="-290" />
            </Array>
          </mxGeometry>
        </mxCell>
        <mxCell id="-fyCOlzWIuNnIxvk7xNq-56" style="edgeStyle=elbowEdgeStyle;rounded=1;orthogonalLoop=1;jettySize=auto;elbow=vertical;html=1;fontSize=10;startArrow=none;exitX=0.6;exitY=1.2;exitDx=0;exitDy=0;exitPerimeter=0;" parent="aAHrELg9xsdT0Ef0R614-1" source="-fyCOlzWIuNnIxvk7xNq-57" target="JJHdtYMbySOfqmpjJNIa-86" edge="1">
          <mxGeometry relative="1" as="geometry">
            <mxPoint x="360" y="-360" as="sourcePoint" />
            <mxPoint x="680" y="-310" as="targetPoint" />
            <Array as="points">
              <mxPoint x="524" y="-320" />
              <mxPoint x="580" y="-215" />
              <mxPoint x="600" y="-310" />
              <mxPoint x="560" y="-280" />
            </Array>
          </mxGeometry>
        </mxCell>
        <mxCell id="-fyCOlzWIuNnIxvk7xNq-59" style="edgeStyle=elbowEdgeStyle;rounded=1;orthogonalLoop=1;jettySize=auto;elbow=vertical;html=1;exitX=0.5;exitY=1;exitDx=0;exitDy=0;exitPerimeter=0;fontSize=10;entryX=0.5;entryY=0;entryDx=0;entryDy=0;entryPerimeter=0;" parent="aAHrELg9xsdT0Ef0R614-1" source="JJHdtYMbySOfqmpjJNIa-27" target="-fyCOlzWIuNnIxvk7xNq-57" edge="1">
          <mxGeometry relative="1" as="geometry">
            <mxPoint x="520" y="-360" as="targetPoint" />
            <Array as="points">
              <mxPoint x="510" y="-396" />
            </Array>
          </mxGeometry>
        </mxCell>
        <mxCell id="JJHdtYMbySOfqmpjJNIa-27" value="" style="verticalAlign=top;verticalLabelPosition=bottom;labelPosition=center;align=center;html=1;outlineConnect=0;gradientDirection=north;strokeWidth=2;shape=mxgraph.networks.server;rounded=1;fillColor=#F08E81;strokeColor=#FFFFFF;fontColor=#1A1A1A;" parent="aAHrELg9xsdT0Ef0R614-1" vertex="1">
          <mxGeometry x="90" y="-550" width="70" height="128.64" as="geometry" />
        </mxCell>
        <mxCell id="-fyCOlzWIuNnIxvk7xNq-44" style="edgeStyle=elbowEdgeStyle;curved=1;orthogonalLoop=1;jettySize=auto;elbow=vertical;html=1;exitX=0.5;exitY=0;exitDx=0;exitDy=0;exitPerimeter=0;fontSize=10;" parent="aAHrELg9xsdT0Ef0R614-1" source="JJHdtYMbySOfqmpjJNIa-29" edge="1">
          <mxGeometry relative="1" as="geometry">
            <mxPoint x="377" y="-280" as="targetPoint" />
          </mxGeometry>
        </mxCell>
        <mxCell id="-fyCOlzWIuNnIxvk7xNq-61" style="edgeStyle=elbowEdgeStyle;rounded=1;orthogonalLoop=1;jettySize=auto;elbow=vertical;html=1;exitX=0.5;exitY=0.94;exitDx=0;exitDy=0;exitPerimeter=0;entryX=0.653;entryY=1.022;entryDx=0;entryDy=0;entryPerimeter=0;fontSize=10;dashed=1;strokeWidth=2;" parent="aAHrELg9xsdT0Ef0R614-1" source="JJHdtYMbySOfqmpjJNIa-29" target="JJHdtYMbySOfqmpjJNIa-96" edge="1">
          <mxGeometry relative="1" as="geometry">
            <Array as="points">
              <mxPoint x="540" y="-50" />
            </Array>
          </mxGeometry>
        </mxCell>
        <mxCell id="JJHdtYMbySOfqmpjJNIa-29" value="" style="verticalAlign=top;verticalLabelPosition=bottom;labelPosition=center;align=center;html=1;outlineConnect=0;gradientDirection=north;strokeWidth=2;shape=mxgraph.networks.web_server;rounded=1;fillColor=#F08E81;strokeColor=#FFFFFF;fontColor=#1A1A1A;" parent="aAHrELg9xsdT0Ef0R614-1" vertex="1">
          <mxGeometry x="314" y="-278.12" width="125" height="156.25" as="geometry" />
        </mxCell>
        <mxCell id="-fyCOlzWIuNnIxvk7xNq-60" style="edgeStyle=elbowEdgeStyle;rounded=1;orthogonalLoop=1;jettySize=auto;elbow=vertical;html=1;exitX=0.5;exitY=0.94;exitDx=0;exitDy=0;exitPerimeter=0;fontSize=10;dashed=1;strokeWidth=2;" parent="aAHrELg9xsdT0Ef0R614-1" source="JJHdtYMbySOfqmpjJNIa-30" target="JJHdtYMbySOfqmpjJNIa-96" edge="1">
          <mxGeometry relative="1" as="geometry">
            <Array as="points">
              <mxPoint x="400" y="-50" />
            </Array>
          </mxGeometry>
        </mxCell>
        <mxCell id="JJHdtYMbySOfqmpjJNIa-30" value="" style="verticalAlign=top;verticalLabelPosition=bottom;labelPosition=center;align=center;html=1;outlineConnect=0;gradientDirection=north;strokeWidth=2;shape=mxgraph.networks.web_server;rounded=1;fillColor=#F08E81;strokeColor=#FFFFFF;fontColor=#1A1A1A;" parent="aAHrELg9xsdT0Ef0R614-1" vertex="1">
          <mxGeometry x="75.77" y="-278.12" width="127.8" height="160" as="geometry" />
        </mxCell>
        <mxCell id="-fyCOlzWIuNnIxvk7xNq-41" style="edgeStyle=elbowEdgeStyle;orthogonalLoop=1;jettySize=auto;elbow=vertical;html=1;fontSize=10;rounded=1;" parent="aAHrELg9xsdT0Ef0R614-1" target="JJHdtYMbySOfqmpjJNIa-29" edge="1">
          <mxGeometry relative="1" as="geometry">
            <mxPoint x="425" y="-230" as="targetPoint" />
            <mxPoint x="425" y="-550" as="sourcePoint" />
            <Array as="points">
              <mxPoint x="480" y="-260" />
              <mxPoint x="480" y="-290" />
              <mxPoint x="470" y="-380" />
              <mxPoint x="430" y="-360" />
              <mxPoint x="460" y="-230" />
              <mxPoint x="460" y="-230" />
            </Array>
          </mxGeometry>
        </mxCell>
        <mxCell id="-fyCOlzWIuNnIxvk7xNq-42" style="edgeStyle=elbowEdgeStyle;orthogonalLoop=1;jettySize=auto;elbow=vertical;html=1;exitX=0.5;exitY=1;exitDx=0;exitDy=0;exitPerimeter=0;fontSize=10;rounded=1;entryX=0.5;entryY=0;entryDx=0;entryDy=0;entryPerimeter=0;" parent="aAHrELg9xsdT0Ef0R614-1" source="JJHdtYMbySOfqmpjJNIa-31" target="JJHdtYMbySOfqmpjJNIa-30" edge="1">
          <mxGeometry relative="1" as="geometry">
            <mxPoint x="140" y="-290" as="targetPoint" />
            <Array as="points">
              <mxPoint x="350" y="-410" />
            </Array>
          </mxGeometry>
        </mxCell>
        <mxCell id="JJHdtYMbySOfqmpjJNIa-31" value="" style="verticalAlign=top;verticalLabelPosition=bottom;labelPosition=center;align=center;html=1;outlineConnect=0;gradientDirection=north;strokeWidth=2;shape=mxgraph.networks.load_balancer;rounded=1;fillColor=#F08E81;strokeColor=#FFFFFF;fontColor=#1A1A1A;" parent="aAHrELg9xsdT0Ef0R614-1" vertex="1">
          <mxGeometry x="375" y="-590" width="100" height="30" as="geometry" />
        </mxCell>
        <mxCell id="JJHdtYMbySOfqmpjJNIa-35" value="Local Workstation&lt;br&gt;Public IP: 172.58.83.22" style="text;html=1;resizable=0;autosize=1;align=center;verticalAlign=middle;points=[];fillColor=none;strokeColor=none;rounded=1;fontColor=#1A1A1A;" parent="aAHrELg9xsdT0Ef0R614-1" vertex="1">
          <mxGeometry x="10" y="-999.4" width="140" height="30" as="geometry" />
        </mxCell>
        <mxCell id="_N8QVy7_EqHjxUrUgRW7-1" value="Azure Virtual Network: REDTEAMNET&lt;br style=&quot;font-size: 14px;&quot;&gt;10.0.0.0/16" style="text;html=1;resizable=0;autosize=1;align=center;verticalAlign=middle;points=[];fillColor=none;strokeColor=none;rounded=1;fontColor=#1A1A1A;fontSize=14;" parent="aAHrELg9xsdT0Ef0R614-1" vertex="1">
          <mxGeometry x="175" y="20" width="250" height="40" as="geometry" />
        </mxCell>
        <mxCell id="JJHdtYMbySOfqmpjJNIa-62" value="10.0.0.7" style="text;html=1;resizable=0;autosize=1;align=center;verticalAlign=middle;points=[];fillColor=none;strokeColor=none;rounded=1;fontColor=#1A1A1A;" parent="aAHrELg9xsdT0Ef0R614-1" vertex="1">
          <mxGeometry x="82.14" y="-80" width="60" height="20" as="geometry" />
        </mxCell>
        <mxCell id="JJHdtYMbySOfqmpjJNIa-63" value="&amp;nbsp;10.0.0.8" style="text;html=1;resizable=0;autosize=1;align=center;verticalAlign=middle;points=[];fillColor=none;strokeColor=none;rounded=1;fontColor=#1A1A1A;" parent="aAHrELg9xsdT0Ef0R614-1" vertex="1">
          <mxGeometry x="379.99999999999994" y="-80" width="60" height="20" as="geometry" />
        </mxCell>
        <mxCell id="JJHdtYMbySOfqmpjJNIa-67" value="Load Balancer Backend Pool" style="text;html=1;resizable=0;autosize=1;align=center;verticalAlign=middle;points=[];fillColor=none;strokeColor=none;rounded=1;fontSize=12;fontColor=#1A1A1A;" parent="aAHrELg9xsdT0Ef0R614-1" vertex="1">
          <mxGeometry x="183.9" y="-40" width="170" height="20" as="geometry" />
        </mxCell>
        <mxCell id="JJHdtYMbySOfqmpjJNIa-71" value="Azure Virtual Network: ELKNET&lt;br style=&quot;font-size: 14px;&quot;&gt;10.2.0.0/16" style="text;html=1;resizable=0;autosize=1;align=center;verticalAlign=middle;points=[];fillColor=none;strokeColor=none;rounded=1;fontColor=#1A1A1A;fontSize=14;" parent="aAHrELg9xsdT0Ef0R614-1" vertex="1">
          <mxGeometry x="615" y="20" width="210" height="40" as="geometry" />
        </mxCell>
        <mxCell id="JJHdtYMbySOfqmpjJNIa-70" value="" style="shape=image;verticalLabelPosition=bottom;verticalAlign=top;aspect=fixed;imageAspect=0;image=data:image/svg+xml,PHN2ZyB4bWxuczpjYz0iaHR0cDovL2NyZWF0aXZlY29tbW9ucy5vcmcvbnMjIiB4bWxuczpkYz0iaHR0cDovL3B1cmwub3JnL2RjL2VsZW1lbnRzLzEuMS8iIHhtbG5zOmlua3NjYXBlPSJodHRwOi8vd3d3Lmlua3NjYXBlLm9yZy9uYW1lc3BhY2VzL2lua3NjYXBlIiB4bWxuczpyZGY9Imh0dHA6Ly93d3cudzMub3JnLzE5OTkvMDIvMjItcmRmLXN5bnRheC1ucyMiIHhtbG5zOnNvZGlwb2RpPSJodHRwOi8vc29kaXBvZGkuc291cmNlZm9yZ2UubmV0L0RURC9zb2RpcG9kaS0wLmR0ZCIgeG1sbnM6c3ZnPSJodHRwOi8vd3d3LnczLm9yZy8yMDAwL3N2ZyIgeG1sbnM9Imh0dHA6Ly93d3cudzMub3JnLzIwMDAvc3ZnIiB4bWxuczp4bGluaz0iaHR0cDovL3d3dy53My5vcmcvMTk5OS94bGluayIgdmVyc2lvbj0iMS4xIiBpZD0ic3ZnNjEzNCIgaW5rc2NhcGU6dmVyc2lvbj0iMC45Mi4zICgyNDA1NTQ2LCAyMDE4LTAzLTExKSIgc29kaXBvZGk6ZG9jbmFtZT0idmlydHVhbF9uZXR3b3JrXzEuc3ZnIiB4PSIwcHgiIHk9IjBweCIgdmlld0JveD0iMCAwIDM0LjYxIDE5Ljg1IiBzdHlsZT0iZW5hYmxlLWJhY2tncm91bmQ6bmV3IDAgMCAzNC42MSAxOS44NTsiIHhtbDpzcGFjZT0icHJlc2VydmUiPiYjeGE7PHNvZGlwb2RpOm5hbWVkdmlldyBib3JkZXJjb2xvcj0iIzY2NjY2NiIgYm9yZGVyb3BhY2l0eT0iMSIgZml0LW1hcmdpbi1ib3R0b209IjAiIGZpdC1tYXJnaW4tbGVmdD0iMCIgZml0LW1hcmdpbi1yaWdodD0iMCIgZml0LW1hcmdpbi10b3A9IjAiIGdyaWR0b2xlcmFuY2U9IjEwIiBndWlkZXRvbGVyYW5jZT0iMTAiIGlkPSJuYW1lZHZpZXc2MTM2IiBpbmtzY2FwZTpjdXJyZW50LWxheWVyPSJzdmc2MTM0IiBpbmtzY2FwZTpjeD0iMjMuMDc1MjcxIiBpbmtzY2FwZTpjeT0iMTMuMjMyNTUiIGlua3NjYXBlOnBhZ2VvcGFjaXR5PSIwIiBpbmtzY2FwZTpwYWdlc2hhZG93PSIyIiBpbmtzY2FwZTp3aW5kb3ctaGVpZ2h0PSIxMDE3IiBpbmtzY2FwZTp3aW5kb3ctbWF4aW1pemVkPSIxIiBpbmtzY2FwZTp3aW5kb3ctd2lkdGg9IjE5MjAiIGlua3NjYXBlOndpbmRvdy14PSItOCIgaW5rc2NhcGU6d2luZG93LXk9Ii04IiBpbmtzY2FwZTp6b29tPSIxNC42Njg5NzgiIG9iamVjdHRvbGVyYW5jZT0iMTAiIHBhZ2Vjb2xvcj0iI2ZmZmZmZiIgc2hvd2dyaWQ9ImZhbHNlIj4mI3hhOwk8L3NvZGlwb2RpOm5hbWVkdmlldz4mI3hhOzxnIGlkPSJnNjEzMiIgdHJhbnNmb3JtPSJ0cmFuc2xhdGUoLTEyLjI0MTQ2MSwtMTIuMjM5MSkiPiYjeGE7CTx0aXRsZSBpZD0idGl0bGU2MTAyIj5QYWdlLTE8L3RpdGxlPiYjeGE7CTxnIGlkPSJncm91cDk1MDctMSIgdHJhbnNmb3JtPSJ0cmFuc2xhdGUoMTIuMTI4NCwtMTIuMTI4NCkiPiYjeGE7CQk8dGl0bGUgaWQ9InRpdGxlNjEwNCI+VmlydHVhbCBOZXR3b3JrICMxPC90aXRsZT4mI3hhOwkJPGcgaWQ9InNoYXBlOTUwOC0yIiB0cmFuc2Zvcm09InRyYW5zbGF0ZSgyMy43MDk5KSI+JiN4YTsJCQk8dGl0bGUgaWQ9InRpdGxlNjEwNiI+U2hlZXQuOTUwODwvdGl0bGU+JiN4YTsJCQk8cGF0aCBpZD0icGF0aDYxMDgiIGlua3NjYXBlOmNvbm5lY3Rvci1jdXJ2YXR1cmU9IjAiIHN0eWxlPSJmaWxsOiMzOTk5QzY7IiBkPSJNMTAuNzgsMzQuNzljMC4zNS0wLjM1LDAuMjgtMC45LDAtMS4yNSAgICAgbC0xLjY2LTEuNjVsLTcuNDYtNy4yNmMtMC4zNS0wLjM1LTAuODMtMC4zNS0xLjE4LDBjLTAuMzQsMC4zNC0wLjQxLDAuOSwwLDEuMjRsNy44Miw3LjY3YzAuMzQsMC4zNSwwLjM0LDAuOSwwLDEuMjVsLTcuOTUsNy45NSAgICAgYy0wLjM1LDAuMzQtMC4zNSwwLjksMCwxLjI0YzAuMzQsMC4zNSwwLjg5LDAuMjgsMS4xNywwbDcuNC03LjMyYzAsMCwwLDAsMC4wNy0wLjA3TDEwLjc4LDM0Ljc5eiIvPiYjeGE7CQk8L2c+JiN4YTsJCTxnIGlkPSJzaGFwZTk1MDktNCI+JiN4YTsJCQk8dGl0bGUgaWQ9InRpdGxlNjExMSI+U2hlZXQuOTUwOTwvdGl0bGU+JiN4YTsJCQk8cGF0aCBpZD0icGF0aDYxMTMiIGlua3NjYXBlOmNvbm5lY3Rvci1jdXJ2YXR1cmU9IjAiIHN0eWxlPSJmaWxsOiMzOTk5QzY7IiBkPSJNMC4zNSwzNC43OWMtMC4zNS0wLjM1LTAuMjgtMC45LDAtMS4yNUwyLDMxLjg5ICAgICBsNy40Ny03LjI2YzAuMzUtMC4zNSwwLjgzLTAuMzUsMS4xOCwwYzAuMzQsMC4zNCwwLjQxLDAuOSwwLDEuMjRsLTcuNjgsNy42N2MtMC4zNCwwLjM1LTAuMzQsMC45LDAsMS4yNWw3LjgxLDcuOTUgICAgIGMwLjM1LDAuMzQsMC4zNSwwLjksMCwxLjI0Yy0wLjM0LDAuMzUtMC45LDAuMjgtMS4xNywwbC03LjU0LTcuMjZjMCwwLDAsMC0wLjA3LTAuMDZMMC4zNSwzNC43OXoiLz4mI3hhOwkJPC9nPiYjeGE7CQk8ZyBpZD0ic2hhcGU5NTEwLTYiIHRyYW5zZm9ybT0idHJhbnNsYXRlKDguMDE4NTEsLTcuODgwMjYpIj4mI3hhOwkJCTx0aXRsZSBpZD0idGl0bGU2MTE2Ij5TaGVldC45NTEwPC90aXRsZT4mI3hhOwkJCTxwYXRoIGlkPSJwYXRoNjExOCIgaW5rc2NhcGU6Y29ubmVjdG9yLWN1cnZhdHVyZT0iMCIgc3R5bGU9ImZpbGw6IzdGQkEwMDsiIGQ9Ik00LjcsNDIuMDVjMCwxLjMxLTEuMTEsMi4yOC0yLjI4LDIuMjggICAgIEMxLjI0LDQ0LjMzLDAsNDMuMjIsMCw0Mi4wNWMwLTEuMTgsMC45Ny0yLjI4LDIuNDItMi4yOEMzLjgsMzkuNzcsNC43LDQwLjg3LDQuNyw0Mi4wNXoiLz4mI3hhOwkJPC9nPiYjeGE7CQk8ZyBpZD0ic2hhcGU5NTExLTgiIHRyYW5zZm9ybT0idHJhbnNsYXRlKDE1LjAwMDEsLTcuODgwMjYpIj4mI3hhOwkJCTx0aXRsZSBpZD0idGl0bGU2MTIxIj5TaGVldC45NTExPC90aXRsZT4mI3hhOwkJCTxwYXRoIGlkPSJwYXRoNjEyMyIgaW5rc2NhcGU6Y29ubmVjdG9yLWN1cnZhdHVyZT0iMCIgc3R5bGU9ImZpbGw6IzdGQkEwMDsiIGQ9Ik00LjcsNDIuMDVjMCwxLjMxLTEuMTEsMi4yOC0yLjI4LDIuMjggICAgIEMxLjI0LDQ0LjMzLDAsNDMuMjIsMCw0Mi4wNWMwLTEuMTgsMS4xMS0yLjI4LDIuNDItMi4yOFM0LjcsNDAuODcsNC43LDQyLjA1eiIvPiYjeGE7CQk8L2c+JiN4YTsJCTxnIGlkPSJzaGFwZTk1MTItMTAiIHRyYW5zZm9ybT0idHJhbnNsYXRlKDIyLjE4OTIsLTcuODgwMjYpIj4mI3hhOwkJCTx0aXRsZSBpZD0idGl0bGU2MTI2Ij5TaGVldC45NTEyPC90aXRsZT4mI3hhOwkJCTxjaXJjbGUgaWQ9ImVsbGlwc2U2MTI4IiBzdHlsZT0iZmlsbDojN0ZCQTAwOyIgY3g9IjIuMjgiIGN5PSI0Mi4wNSIgcj0iMi4yOCIvPiYjeGE7CQk8L2c+JiN4YTsJPC9nPiYjeGE7PC9nPiYjeGE7PC9zdmc+;rounded=1;fillColor=#F08E81;strokeColor=#FFFFFF;fontColor=#1A1A1A;" parent="aAHrELg9xsdT0Ef0R614-1" vertex="1">
          <mxGeometry x="580" y="28.17" width="35" height="20" as="geometry" />
        </mxCell>
        <mxCell id="JJHdtYMbySOfqmpjJNIa-72" value="" style="shape=image;verticalLabelPosition=bottom;verticalAlign=top;aspect=fixed;imageAspect=0;image=data:image/svg+xml,PHN2ZyB4bWxuczpjYz0iaHR0cDovL2NyZWF0aXZlY29tbW9ucy5vcmcvbnMjIiB4bWxuczpkYz0iaHR0cDovL3B1cmwub3JnL2RjL2VsZW1lbnRzLzEuMS8iIHhtbG5zOmlua3NjYXBlPSJodHRwOi8vd3d3Lmlua3NjYXBlLm9yZy9uYW1lc3BhY2VzL2lua3NjYXBlIiB4bWxuczpyZGY9Imh0dHA6Ly93d3cudzMub3JnLzE5OTkvMDIvMjItcmRmLXN5bnRheC1ucyMiIHhtbG5zOnNvZGlwb2RpPSJodHRwOi8vc29kaXBvZGkuc291cmNlZm9yZ2UubmV0L0RURC9zb2RpcG9kaS0wLmR0ZCIgeG1sbnM6c3ZnPSJodHRwOi8vd3d3LnczLm9yZy8yMDAwL3N2ZyIgeG1sbnM9Imh0dHA6Ly93d3cudzMub3JnLzIwMDAvc3ZnIiB4bWxuczp4bGluaz0iaHR0cDovL3d3dy53My5vcmcvMTk5OS94bGluayIgdmVyc2lvbj0iMS4xIiBpZD0ic3ZnOTkyNDkiIGlua3NjYXBlOnZlcnNpb249IjAuOTIuMyAoMjQwNTU0NiwgMjAxOC0wMy0xMSkiIHNvZGlwb2RpOmRvY25hbWU9InN1Ym5ldHMuc3ZnIiB4PSIwcHgiIHk9IjBweCIgdmlld0JveD0iMCAwIDM0Ljg0IDIxLjYxIiBzdHlsZT0iZW5hYmxlLWJhY2tncm91bmQ6bmV3IDAgMCAzNC44NCAyMS42MTsiIHhtbDpzcGFjZT0icHJlc2VydmUiPiYjeGE7PHNvZGlwb2RpOm5hbWVkdmlldyBib3JkZXJjb2xvcj0iIzY2NjY2NiIgYm9yZGVyb3BhY2l0eT0iMSIgZml0LW1hcmdpbi1ib3R0b209IjAiIGZpdC1tYXJnaW4tbGVmdD0iMCIgZml0LW1hcmdpbi1yaWdodD0iMCIgZml0LW1hcmdpbi10b3A9IjAiIGdyaWR0b2xlcmFuY2U9IjEwIiBndWlkZXRvbGVyYW5jZT0iMTAiIGlkPSJuYW1lZHZpZXc5OTI1MSIgaW5rc2NhcGU6Y3VycmVudC1sYXllcj0ic3ZnOTkyNDkiIGlua3NjYXBlOmN4PSI0MC45MTcxNDUiIGlua3NjYXBlOmN5PSIwLjYzNzUyNTg2IiBpbmtzY2FwZTpwYWdlb3BhY2l0eT0iMCIgaW5rc2NhcGU6cGFnZXNoYWRvdz0iMiIgaW5rc2NhcGU6d2luZG93LWhlaWdodD0iMTAxNyIgaW5rc2NhcGU6d2luZG93LW1heGltaXplZD0iMSIgaW5rc2NhcGU6d2luZG93LXdpZHRoPSIxOTIwIiBpbmtzY2FwZTp3aW5kb3cteD0iLTgiIGlua3NjYXBlOndpbmRvdy15PSItOCIgaW5rc2NhcGU6em9vbT0iMTAuNjM5NDk0IiBvYmplY3R0b2xlcmFuY2U9IjEwIiBwYWdlY29sb3I9IiNmZmZmZmYiIHNob3dncmlkPSJmYWxzZSI+JiN4YTsJPC9zb2RpcG9kaTpuYW1lZHZpZXc+JiN4YTs8ZyBpZD0iZzk5MjQ3IiB0cmFuc2Zvcm09InRyYW5zbGF0ZSgtNC4yMzMxNzQ5ZS01KSI+JiN4YTsJPHRpdGxlIGlkPSJ0aXRsZTk5MjI3Ij5QYWdlLTE8L3RpdGxlPiYjeGE7CTxnIGlkPSJncm91cDQ2NTQtMSI+JiN4YTsJCTx0aXRsZSBpZD0idGl0bGU5OTIyOSI+U3VibmV0czwvdGl0bGU+JiN4YTsJCTxnIGlkPSJzaGFwZTQ2NTUtMiIgdHJhbnNmb3JtPSJ0cmFuc2xhdGUoMjIuNjEzKSI+JiN4YTsJCQk8dGl0bGUgaWQ9InRpdGxlOTkyMzEiPlNoZWV0LjQ2NTU8L3RpdGxlPiYjeGE7CQkJPHBhdGggaWQ9InBhdGg5OTIzMyIgaW5rc2NhcGU6Y29ubmVjdG9yLWN1cnZhdHVyZT0iMCIgc3R5bGU9ImZpbGw6IzM5OTlDNjsiIGQ9Ik0xMi4yMywxMC42OEw5Ljg0LDguMjlMMS4zOSwwTDAsMS4yNmw5LjU4LDkuNDIgICAgIEwwLDIwLjM1bDEuMzksMS4yNmw4LjQ1LTguM0wxMi4yMywxMC42OHoiLz4mI3hhOwkJPC9nPiYjeGE7CQk8ZyBpZD0ic2hhcGU0NjU2LTQiPiYjeGE7CQkJPHRpdGxlIGlkPSJ0aXRsZTk5MjM2Ij5TaGVldC40NjU2PC90aXRsZT4mI3hhOwkJCTxwYXRoIGlkPSJwYXRoOTkyMzgiIGlua3NjYXBlOmNvbm5lY3Rvci1jdXJ2YXR1cmU9IjAiIHN0eWxlPSJmaWxsOiMzOTk5QzY7IiBkPSJNMCwxMC42OGwyLjM5LTIuMzlMMTAuODQsMGwxLjM5LDEuMjYgICAgIGwtOS41OCw5LjQybDkuNTgsOS42N2wtMS4zOSwxLjI2bC04LjQ1LTguM0wwLDEwLjY4eiIvPiYjeGE7CQk8L2c+JiN4YTsJCTxnIGlkPSJzaGFwZTQ2NTctNiIgdHJhbnNmb3JtPSJ0cmFuc2xhdGUoMTQuODY4NSwtOC41MzE5NykiPiYjeGE7CQkJPHRpdGxlIGlkPSJ0aXRsZTk5MjQxIj5TaGVldC40NjU3PC90aXRsZT4mI3hhOwkJCTxwYXRoIGlkPSJwYXRoOTkyNDMiIGlua3NjYXBlOmNvbm5lY3Rvci1jdXJ2YXR1cmU9IjAiIHN0eWxlPSJmaWxsOiM3RkJBMDA7IiBkPSJNNC45MSwxOS4yMWMwLDEuMzgtMS4xMywyLjQtMi4zOSwyLjQgICAgIFMwLDIwLjQ2LDAsMTkuMjFjMC0xLjI2LDEuMTMtMi4zOCwyLjUyLTIuMzhTNC45MSwxNy45NSw0LjkxLDE5LjIxeiIvPiYjeGE7CQk8L2c+JiN4YTsJPC9nPiYjeGE7PC9nPiYjeGE7PC9zdmc+;fillColor=none;rounded=1;strokeColor=#FFFFFF;fontColor=#1A1A1A;" parent="aAHrELg9xsdT0Ef0R614-1" vertex="1">
          <mxGeometry x="639.9999999999999" y="4" width="19.09" height="12" as="geometry" />
        </mxCell>
        <mxCell id="JJHdtYMbySOfqmpjJNIa-77" value="Subnet 10.2.0.0/24" style="text;html=1;resizable=0;autosize=1;align=center;verticalAlign=middle;points=[];fillColor=none;strokeColor=none;rounded=1;fontSize=12;fontColor=#1A1A1A;" parent="aAHrELg9xsdT0Ef0R614-1" vertex="1">
          <mxGeometry x="655" width="120" height="20" as="geometry" />
        </mxCell>
        <mxCell id="JJHdtYMbySOfqmpjJNIa-84" value="DVWA Containers" style="text;html=1;resizable=0;autosize=1;align=center;verticalAlign=middle;points=[];fillColor=none;strokeColor=none;rounded=1;fontSize=12;fontColor=#1A1A1A;fontStyle=1" parent="aAHrELg9xsdT0Ef0R614-1" vertex="1">
          <mxGeometry x="200" y="-120" width="120" height="20" as="geometry" />
        </mxCell>
        <mxCell id="-fyCOlzWIuNnIxvk7xNq-52" style="edgeStyle=elbowEdgeStyle;rounded=1;orthogonalLoop=1;jettySize=auto;elbow=vertical;html=1;exitX=0.5;exitY=1;exitDx=0;exitDy=0;exitPerimeter=0;entryX=0.5;entryY=0;entryDx=0;entryDy=0;entryPerimeter=0;fontSize=10;startArrow=none;" parent="aAHrELg9xsdT0Ef0R614-1" source="-fyCOlzWIuNnIxvk7xNq-53" target="JJHdtYMbySOfqmpjJNIa-86" edge="1">
          <mxGeometry relative="1" as="geometry" />
        </mxCell>
        <mxCell id="JJHdtYMbySOfqmpjJNIa-85" value="" style="verticalAlign=top;verticalLabelPosition=bottom;labelPosition=center;align=center;html=1;outlineConnect=0;gradientDirection=north;strokeWidth=2;shape=mxgraph.networks.firewall;rounded=1;fillColor=#F08E81;strokeColor=#FFFFFF;fontColor=#1A1A1A;" parent="aAHrELg9xsdT0Ef0R614-1" vertex="1">
          <mxGeometry x="620" y="-855" width="140" height="115" as="geometry" />
        </mxCell>
        <mxCell id="JJHdtYMbySOfqmpjJNIa-86" value="" style="verticalAlign=top;verticalLabelPosition=bottom;labelPosition=center;align=center;html=1;outlineConnect=0;gradientDirection=north;strokeWidth=2;shape=mxgraph.networks.server;rounded=1;fillColor=#F08E81;strokeColor=#FFFFFF;fontColor=#1A1A1A;" parent="aAHrELg9xsdT0Ef0R614-1" vertex="1">
          <mxGeometry x="637.5600000000001" y="-300" width="104.88" height="170" as="geometry" />
        </mxCell>
        <mxCell id="JJHdtYMbySOfqmpjJNIa-96" value="ELK&lt;br&gt;Public IP: 40.78.137.206&lt;br&gt;Private IP: 10.2.0.4" style="text;html=1;resizable=0;autosize=1;align=center;verticalAlign=middle;points=[];fillColor=none;strokeColor=none;rounded=1;fontSize=12;fontColor=#1A1A1A;" parent="aAHrELg9xsdT0Ef0R614-1" vertex="1">
          <mxGeometry x="615" y="-118.12" width="150" height="50" as="geometry" />
        </mxCell>
        <mxCell id="JJHdtYMbySOfqmpjJNIa-99" style="edgeStyle=none;rounded=1;orthogonalLoop=1;jettySize=auto;html=1;exitX=0.5;exitY=1;exitDx=0;exitDy=0;fontSize=9;strokeColor=#182E3E;fontColor=#1A1A1A;labelBackgroundColor=#B0E3E6;" parent="aAHrELg9xsdT0Ef0R614-1" source="JJHdtYMbySOfqmpjJNIa-69" target="JJHdtYMbySOfqmpjJNIa-69" edge="1">
          <mxGeometry relative="1" as="geometry" />
        </mxCell>
        <mxCell id="JJHdtYMbySOfqmpjJNIa-113" value="" style="shape=image;verticalLabelPosition=bottom;verticalAlign=top;aspect=fixed;imageAspect=0;image=data:image/svg+xml,PHN2ZyB4bWxuczpjYz0iaHR0cDovL2NyZWF0aXZlY29tbW9ucy5vcmcvbnMjIiB4bWxuczpkYz0iaHR0cDovL3B1cmwub3JnL2RjL2VsZW1lbnRzLzEuMS8iIHhtbG5zOmlua3NjYXBlPSJodHRwOi8vd3d3Lmlua3NjYXBlLm9yZy9uYW1lc3BhY2VzL2lua3NjYXBlIiB4bWxuczpyZGY9Imh0dHA6Ly93d3cudzMub3JnLzE5OTkvMDIvMjItcmRmLXN5bnRheC1ucyMiIHhtbG5zOnNvZGlwb2RpPSJodHRwOi8vc29kaXBvZGkuc291cmNlZm9yZ2UubmV0L0RURC9zb2RpcG9kaS0wLmR0ZCIgeG1sbnM6c3ZnPSJodHRwOi8vd3d3LnczLm9yZy8yMDAwL3N2ZyIgeG1sbnM9Imh0dHA6Ly93d3cudzMub3JnLzIwMDAvc3ZnIiB4bWxuczp4bGluaz0iaHR0cDovL3d3dy53My5vcmcvMTk5OS94bGluayIgdmVyc2lvbj0iMS4xIiBpZD0ic3ZnNTkwNDkiIGlua3NjYXBlOnZlcnNpb249IjAuOTIuMyAoMjQwNTU0NiwgMjAxOC0wMy0xMSkiIHNvZGlwb2RpOmRvY25hbWU9ImF6dXJlX21vbml0b3Jpbmcuc3ZnIiB4PSIwcHgiIHk9IjBweCIgdmlld0JveD0iMCAwIDM3LjUxIDM3LjUxIiBzdHlsZT0iZW5hYmxlLWJhY2tncm91bmQ6bmV3IDAgMCAzNy41MSAzNy41MTsiIHhtbDpzcGFjZT0icHJlc2VydmUiPiYjeGE7PHNvZGlwb2RpOm5hbWVkdmlldyBib3JkZXJjb2xvcj0iIzY2NjY2NiIgYm9yZGVyb3BhY2l0eT0iMSIgZml0LW1hcmdpbi1ib3R0b209IjAiIGZpdC1tYXJnaW4tbGVmdD0iMCIgZml0LW1hcmdpbi1yaWdodD0iMCIgZml0LW1hcmdpbi10b3A9IjAiIGdyaWR0b2xlcmFuY2U9IjEwIiBndWlkZXRvbGVyYW5jZT0iMTAiIGlkPSJuYW1lZHZpZXc1OTA1MSIgaW5rc2NhcGU6Y3VycmVudC1sYXllcj0ic3ZnNTkwNDkiIGlua3NjYXBlOmN4PSIyOC40Mzg0NjYiIGlua3NjYXBlOmN5PSIxOS4zMzkwODkiIGlua3NjYXBlOnBhZ2VvcGFjaXR5PSIwIiBpbmtzY2FwZTpwYWdlc2hhZG93PSIyIiBpbmtzY2FwZTp3aW5kb3ctaGVpZ2h0PSIxMDE3IiBpbmtzY2FwZTp3aW5kb3ctbWF4aW1pemVkPSIxIiBpbmtzY2FwZTp3aW5kb3ctd2lkdGg9IjE5MjAiIGlua3NjYXBlOndpbmRvdy14PSItOCIgaW5rc2NhcGU6d2luZG93LXk9Ii04IiBpbmtzY2FwZTp6b29tPSIxMS43ODc1NDkiIG9iamVjdHRvbGVyYW5jZT0iMTAiIHBhZ2Vjb2xvcj0iI2ZmZmZmZiIgc2hvd2dyaWQ9ImZhbHNlIj4mI3hhOwk8L3NvZGlwb2RpOm5hbWVkdmlldz4mI3hhOzxnIGlkPSJnNTkwNDciIHRyYW5zZm9ybT0idHJhbnNsYXRlKC0wLjc0ODg1MTgsLTAuNzUzMTEyMjQpIj4mI3hhOwk8dGl0bGUgaWQ9InRpdGxlNTg5NzYiPlBhZ2UtMTwvdGl0bGU+JiN4YTsJPGcgaWQ9Imdyb3VwNTc0OC0xIiB0cmFuc2Zvcm09InRyYW5zbGF0ZSgxLjIzNDQ1LC0yLjUwNjg2KSI+JiN4YTsJCTx0aXRsZSBpZD0idGl0bGU1ODk3OCI+QXp1cmUgTW9uaXRvcmluZzwvdGl0bGU+JiN4YTsJCTxnIGlkPSJncm91cDU3NDktMiI+JiN4YTsJCQk8dGl0bGUgaWQ9InRpdGxlNTg5ODAiPmczODE0PC90aXRsZT4mI3hhOwkJCTxnIGlkPSJzaGFwZTU3NTAtMyIgdHJhbnNmb3JtPSJ0cmFuc2xhdGUoMTMuOTM0MiwtMi4wMzMyNCkiPiYjeGE7CQkJCTx0aXRsZSBpZD0idGl0bGU1ODk4MiI+cGF0aDM3NzU8L3RpdGxlPiYjeGE7CQkJCTxwYXRoIGlkPSJwYXRoNTg5ODQiIGlua3NjYXBlOmNvbm5lY3Rvci1jdXJ2YXR1cmU9IjAiIHN0eWxlPSJmaWxsOiNGRkZGRkY7IiBkPSJNMi43Miw4LjU5Yy04LjU1LDAuOS0xNC43NSw4LjU2LTEzLjg1LDE3LjExICAgICAgYzAuOSw4LjU1LDguNTYsMTQuNzUsMTcuMTEsMTMuODVjOC41NS0wLjksMTQuNzUtOC41NiwxMy44NS0xNy4xMWMtMC40NC00LjE1LTIuNTMtNy45Ni01LjgtMTAuNTZDMTEuMyw5LjY4LDcuOSw4LjQ5LDQuMzksOC41ICAgICAgQzMuODMsOC41LDMuMjcsOC41MywyLjcyLDguNTl6Ii8+JiN4YTsJCQk8L2c+JiN4YTsJCQk8ZyBpZD0ic2hhcGU1NzUxLTUiIHRyYW5zZm9ybT0idHJhbnNsYXRlKDUuODc3OTcsLTE2LjUyMjUpIj4mI3hhOwkJCQk8dGl0bGUgaWQ9InRpdGxlNTg5ODciPnBhdGgzNzc3PC90aXRsZT4mI3hhOwkJCQk8cGF0aCBpZD0icGF0aDU4OTg5IiBpbmtzY2FwZTpjb25uZWN0b3ItY3VydmF0dXJlPSIwIiBzdHlsZT0iZmlsbDojN0ZCQTAwO2ZpbGwtb3BhY2l0eTowLjQ7IiBkPSJNNiwzNC40bC0zLjc1LTMuMDcgICAgICBDMC42OCwzMy41Ny0wLjExLDM2LjI3LDAsMzkuMDFsNC44NC0wLjUxYzAtMS40NiwwLjQxLTIuODgsMS4xOS00LjExTDYsMzQuNHoiLz4mI3hhOwkJCQk8cGF0aCBpZD0icGF0aDU4OTkxIiBpbmtzY2FwZTpjb25uZWN0b3ItY3VydmF0dXJlPSIwIiBzdHlsZT0iZmlsbDpub25lOyIgZD0iTTYsMzQuNGwtMy43NS0zLjA3QzAuNjgsMzMuNTctMC4xMSwzNi4yNywwLDM5LjAxICAgICAgbDQuODQtMC41MWMwLTEuNDYsMC40MS0yLjg4LDEuMTktNC4xMSIvPiYjeGE7CQkJPC9nPiYjeGE7CQkJPGcgaWQ9InNoYXBlNTc1Mi04IiB0cmFuc2Zvcm09InRyYW5zbGF0ZSgxNy44NTU1LC0yMy40OTc1KSI+JiN4YTsJCQkJPHRpdGxlIGlkPSJ0aXRsZTU4OTk0Ij5wYXRoMzc3OTwvdGl0bGU+JiN4YTsJCQkJPHBhdGggaWQ9InBhdGg1ODk5NiIgaW5rc2NhcGU6Y29ubmVjdG9yLWN1cnZhdHVyZT0iMCIgc3R5bGU9ImZpbGw6IzdGQkEwMDtmaWxsLW9wYWNpdHk6MC44OyIgZD0iTTQuNjEsMzguOThsMy4wNy0zLjc1ICAgICAgQzUuNDQsMzMuNjYsMi43NCwzMi44NywwLDMyLjk4bDAuNTEsNC44NGMxLjQ1LDAsMi44NywwLjQxLDQuMSwxLjE5TDQuNjEsMzguOTh6Ii8+JiN4YTsJCQkJPHBhdGggaWQ9InBhdGg1ODk5OCIgaW5rc2NhcGU6Y29ubmVjdG9yLWN1cnZhdHVyZT0iMCIgc3R5bGU9ImZpbGw6bm9uZTsiIGQ9Ik00LjYxLDM4Ljk4bDMuMDctMy43NSAgICAgIEM1LjQ0LDMzLjY2LDIuNzQsMzIuODcsMCwzMi45OGwwLjUxLDQuODRjMS40NSwwLDIuODcsMC40MSw0LjEsMS4xOSIvPiYjeGE7CQkJPC9nPiYjeGE7CQkJPGcgaWQ9InNoYXBlNTc1My0xMSIgdHJhbnNmb3JtPSJ0cmFuc2xhdGUoOS4xNDc5NywtMjIuNDU1KSI+JiN4YTsJCQkJPHRpdGxlIGlkPSJ0aXRsZTU5MDAxIj5wYXRoMzc4MTwvdGl0bGU+JiN4YTsJCQkJPHBhdGggaWQ9InBhdGg1OTAwMyIgaW5rc2NhcGU6Y29ubmVjdG9yLWN1cnZhdHVyZT0iMCIgc3R5bGU9ImZpbGw6IzdGQkEwMDtmaWxsLW9wYWNpdHk6MC42OyIgZD0iTTcuNTIsMzYuOThsLTAuNTEtNC44NyAgICAgIEM0LjMyLDMyLjU5LDEuODUsMzMuOTQsMCwzNS45NWwzLjc1LDMuMDZjMS4wMy0xLjAzLDIuMzMtMS43NSwzLjc1LTIuMDdMNy41MiwzNi45OHoiLz4mI3hhOwkJCQk8cGF0aCBpZD0icGF0aDU5MDA1IiBpbmtzY2FwZTpjb25uZWN0b3ItY3VydmF0dXJlPSIwIiBzdHlsZT0iZmlsbDpub25lOyIgZD0iTTcuNTIsMzYuOThsLTAuNTEtNC44NyAgICAgIEM0LjMyLDMyLjU5LDEuODUsMzMuOTQsMCwzNS45NWwzLjc1LDMuMDZjMS4wMy0xLjAzLDIuMzMtMS43NSwzLjc1LTIuMDciLz4mI3hhOwkJCTwvZz4mI3hhOwkJCTxnIGlkPSJzaGFwZTU3NTQtMTQiIHRyYW5zZm9ybT0idHJhbnNsYXRlKDYuMDI3OTcsLTcuODA3NSkiPiYjeGE7CQkJCTx0aXRsZSBpZD0idGl0bGU1OTAwOCI+cGF0aDM3ODM8L3RpdGxlPiYjeGE7CQkJCTxwYXRoIGlkPSJwYXRoNTkwMTAiIGlua3NjYXBlOmNvbm5lY3Rvci1jdXJ2YXR1cmU9IjAiIHN0eWxlPSJmaWxsOiM3RkJBMDA7ZmlsbC1vcGFjaXR5OjAuMjU7IiBkPSJNNC44NCwzMS40OEwwLDMxLjk5ICAgICAgYzAuNDcsMi43LDEuODIsNS4xNiwzLjg0LDcuMDJsMy4wNi0zLjc1Yy0xLjAzLTEuMDMtMS43NC0yLjMzLTIuMDYtMy43NVYzMS40OHoiLz4mI3hhOwkJCQk8cGF0aCBpZD0icGF0aDU5MDEyIiBpbmtzY2FwZTpjb25uZWN0b3ItY3VydmF0dXJlPSIwIiBzdHlsZT0iZmlsbDpub25lOyIgZD0iTTQuODQsMzEuNDhMMCwzMS45OWMwLjQ3LDIuNywxLjgyLDUuMTYsMy44NCw3LjAyICAgICAgbDMuMDYtMy43NWMtMS4wMy0xLjAzLTEuNzQtMi4zMy0yLjA2LTMuNzUiLz4mI3hhOwkJCTwvZz4mI3hhOwkJCTxnIGlkPSJzaGFwZTU3NTUtMTciIHRyYW5zZm9ybT0idHJhbnNsYXRlKDEwLjM1NTUpIj4mI3hhOwkJCQk8dGl0bGUgaWQ9InRpdGxlNTkwMTUiPnBhdGgzNzg1PC90aXRsZT4mI3hhOwkJCQk8cGF0aCBpZD0icGF0aDU5MDE3IiBpbmtzY2FwZTpjb25uZWN0b3ItY3VydmF0dXJlPSIwIiBzdHlsZT0iZmlsbDojQTBBMUEyOyIgZD0iTTI2LjU3LDIwLjA2Yy0wLjUzLTQuOTktMy4wNC05LjU2LTYuOTUtMTIuNyAgICAgIGMtMC43NC0wLjU4LTEuNTEtMS4xMS0yLjMzLTEuNTdsLTEuNSwyLjgzYzAuNjMsMC4zNywxLjIyLDAuNzgsMS43OSwxLjIzYzYuNzMsNS4zNCw3Ljg1LDE1LjEzLDIuNTEsMjEuODUgICAgICBjLTIuNTksMy4yNy02LjM5LDUuMzYtMTAuNTQsNS44Yy0yLjc1LDAuMjktNS41My0wLjE3LTguMDUtMS4zMkwwLDM5LjAxYzkuMzksNC4zOCwyMC41NCwwLjMxLDI0LjkyLTkuMDcgICAgICBDMjYuMzUsMjYuODYsMjYuOTIsMjMuNDQsMjYuNTcsMjAuMDZ6Ii8+JiN4YTsJCQk8L2c+JiN4YTsJCQk8ZyBpZD0ic2hhcGU1NzU2LTE5IiB0cmFuc2Zvcm09InRyYW5zbGF0ZSgwLC0wLjAwNzUpIj4mI3hhOwkJCQk8dGl0bGUgaWQ9InRpdGxlNTkwMjAiPnBhdGgzNzg3PC90aXRsZT4mI3hhOwkJCQk8cGF0aCBpZD0icGF0aDU5MDIyIiBpbmtzY2FwZTpjb25uZWN0b3ItY3VydmF0dXJlPSIwIiBzdHlsZT0iZmlsbDojQTBBMUEyOyIgZD0iTTguNTMsMzQuMTNjLTYuNjktNS4zOS03Ljc0LTE1LjE4LTIuMzUtMjEuODcgICAgICBjNC44NS02LjAyLDEzLjM4LTcuNTYsMjAuMDMtMy42M2wxLjUtMi44M2MtOC00LjY0LTE4LjE5LTIuNzYtMjQsNC40NGMtNi41Miw4LTUuMzEsMTkuNzcsMi42OSwyNi4yOCAgICAgIGMxLjIyLDAuOTksMi41NiwxLjgzLDMuOTksMi40OWwxLjUtMi44M0MxMC42OSwzNS42NCw5LjU2LDM0Ljk1LDguNTMsMzQuMTN6Ii8+JiN4YTsJCQk8L2c+JiN4YTsJCQk8ZyBpZD0ic2hhcGU1NzU3LTIxIiB0cmFuc2Zvcm09InRyYW5zbGF0ZSgwLC0wLjAwNzUpIj4mI3hhOwkJCQk8dGl0bGUgaWQ9InRpdGxlNTkwMjUiPnBhdGgzNzg5PC90aXRsZT4mI3hhOwkJCQk8cGF0aCBpZD0icGF0aDU5MDI3IiBpbmtzY2FwZTpjb25uZWN0b3ItY3VydmF0dXJlPSIwIiBzdHlsZT0iZmlsbDojRkZGRkZGO2ZpbGwtb3BhY2l0eTowLjI7IiBkPSJNOC41MywzNC4xMyAgICAgIGMtNi42OS01LjM5LTcuNzQtMTUuMTgtMi4zNS0yMS44N2M0Ljg1LTYuMDIsMTMuMzgtNy41NiwyMC4wMy0zLjYzbDEuNS0yLjgzYy04LTQuNjQtMTguMTktMi43Ni0yNCw0LjQ0ICAgICAgYy02LjUyLDgtNS4zMSwxOS43NywyLjY5LDI2LjI4YzEuMjIsMC45OSwyLjU2LDEuODMsMy45OSwyLjQ5bDEuNS0yLjgzQzEwLjY5LDM1LjY0LDkuNTYsMzQuOTUsOC41MywzNC4xM3oiLz4mI3hhOwkJCTwvZz4mI3hhOwkJCTxnIGlkPSJzaGFwZTU3NTgtMjMiIHRyYW5zZm9ybT0idHJhbnNsYXRlKDIzLjc5NTUsLTE5LjkxMjUpIj4mI3hhOwkJCQk8dGl0bGUgaWQ9InRpdGxlNTkwMzAiPnBhdGgzNzkxPC90aXRsZT4mI3hhOwkJCQk8cGF0aCBpZD0icGF0aDU5MDMyIiBpbmtzY2FwZTpjb25uZWN0b3ItY3VydmF0dXJlPSIwIiBzdHlsZT0iZmlsbDojN0ZCQTAwOyIgZD0iTTMuMDYsMzIuNjhMMCwzNi40MyAgICAgIGMwLjczLDAuNzQsMS4zMSwxLjYxLDEuNjksMi41OGg1LjA5QzYuMiwzNi41Nyw0LjkxLDM0LjM3LDMuMDYsMzIuNjh6Ii8+JiN4YTsJCQk8L2c+JiN4YTsJCQk8ZyBpZD0ic2hhcGU1NzU5LTI1IiB0cmFuc2Zvcm09InRyYW5zbGF0ZSgxNi4zNTUxLC0xNC44NSkiPiYjeGE7CQkJCTx0aXRsZSBpZD0idGl0bGU1OTAzNSI+cGF0aDM3OTM8L3RpdGxlPiYjeGE7CQkJCTxwYXRoIGlkPSJwYXRoNTkwMzciIGlua3NjYXBlOmNvbm5lY3Rvci1jdXJ2YXR1cmU9IjAiIHN0eWxlPSJmaWxsOiNERDU5MDA7IiBkPSJNMC40OSwzOC4zOGMtMC44Ni0wLjg1LTAuODctMi4yNC0wLjAyLTMuMSAgICAgIGMwLjQxLTAuNDIsMC45OC0wLjY1LDEuNTYtMC42NWMwLjU4LTAuMDEsMS4xMywwLjIsMS41NSwwLjZoMTEuMmMwLjg4LTAuMDUsMS42NCwwLjYyLDEuNjgsMS41MXMtMC42MiwxLjY0LTEuNTEsMS42OCAgICAgIGMtMC4wNiwwLTAuMTIsMC0wLjE4LDBIMy40N2MtMC4zOSwwLjM2LTAuOTEsMC41Ny0xLjQ0LDAuNTlDMS40NSwzOS4wMSwwLjksMzguNzksMC40OSwzOC4zOHoiLz4mI3hhOwkJCTwvZz4mI3hhOwkJCTxnIGlkPSJzaGFwZTU3NjAtMjciIHRyYW5zZm9ybT0idHJhbnNsYXRlKDE2LjE5OCwtMTYuOTgpIj4mI3hhOwkJCQk8dGl0bGUgaWQ9InRpdGxlNTkwNDAiPnBhdGgzNzk1PC90aXRsZT4mI3hhOwkJCQk8cGF0aCBpZD0icGF0aDU5MDQyIiBpbmtzY2FwZTpjb25uZWN0b3ItY3VydmF0dXJlPSIwIiBzdHlsZT0iZmlsbDojRkY4QzAwOyIgZD0iTTE0LjkzLDM3LjQySDMuNzMgICAgICBjLTAuNDEtMC40LTAuOTctMC42Mi0xLjU0LTAuNjFDMC45OCwzNi44MSwwLDM3Ljc5LDAsMzljMCwwLDAsMC4wMSwwLDAuMDFoMTYuNUMxNi41LDM4LjE0LDE1LjgsMzcuNDMsMTQuOTMsMzcuNDJ6Ii8+JiN4YTsJCQk8L2c+JiN4YTsJCTwvZz4mI3hhOwk8L2c+JiN4YTs8L2c+JiN4YTs8L3N2Zz4=;fontSize=9;rounded=1;fillColor=#F08E81;strokeColor=#FFFFFF;fontColor=#1A1A1A;" parent="aAHrELg9xsdT0Ef0R614-1" vertex="1">
          <mxGeometry x="760.6" y="-269" width="39" height="39" as="geometry" />
        </mxCell>
        <mxCell id="JJHdtYMbySOfqmpjJNIa-121" value="" style="shape=image;verticalLabelPosition=bottom;verticalAlign=top;aspect=fixed;imageAspect=0;image=data:image/svg+xml,PHN2ZyB4bWxuczpkYz0iaHR0cDovL3B1cmwub3JnL2RjL2VsZW1lbnRzLzEuMS8iIHhtbG5zOmNjPSJodHRwOi8vY3JlYXRpdmVjb21tb25zLm9yZy9ucyMiIHhtbG5zOnJkZj0iaHR0cDovL3d3dy53My5vcmcvMTk5OS8wMi8yMi1yZGYtc3ludGF4LW5zIyIgeG1sbnM6c3ZnPSJodHRwOi8vd3d3LnczLm9yZy8yMDAwL3N2ZyIgeG1sbnM9Imh0dHA6Ly93d3cudzMub3JnLzIwMDAvc3ZnIiB4bWxuczpzb2RpcG9kaT0iaHR0cDovL3NvZGlwb2RpLnNvdXJjZWZvcmdlLm5ldC9EVEQvc29kaXBvZGktMC5kdGQiIHhtbG5zOmlua3NjYXBlPSJodHRwOi8vd3d3Lmlua3NjYXBlLm9yZy9uYW1lc3BhY2VzL2lua3NjYXBlIiB2ZXJzaW9uPSIxLjEiIGlkPSJzdmc2NTMyNCIgaW5rc2NhcGU6dmVyc2lvbj0iMC45Mi4zICgyNDA1NTQ2LCAyMDE4LTAzLTExKSIgc29kaXBvZGk6ZG9jbmFtZT0iYXp1cmVfdmlydHVhbF9tYWNoaW5lc19hdmFpbGFiaWxpdHlfc2V0LnN2ZyIgeD0iMHB4IiB5PSIwcHgiIHZpZXdCb3g9IjAgMCAzNy41MDAwMDEgMzcuNSIgeG1sOnNwYWNlPSJwcmVzZXJ2ZSIgd2lkdGg9IjM3LjUiIGhlaWdodD0iMzcuNSI+PG1ldGFkYXRhIGlkPSJtZXRhZGF0YTIwNjI1Ij48cmRmOlJERj48Y2M6V29yayByZGY6YWJvdXQ9IiI+PGRjOmZvcm1hdD5pbWFnZS9zdmcreG1sPC9kYzpmb3JtYXQ+PGRjOnR5cGUgcmRmOnJlc291cmNlPSJodHRwOi8vcHVybC5vcmcvZGMvZGNtaXR5cGUvU3RpbGxJbWFnZSIvPjxkYzp0aXRsZS8+PC9jYzpXb3JrPjwvcmRmOlJERj48L21ldGFkYXRhPjxkZWZzIGlkPSJkZWZzMjA2MjMiPiYjeGE7CSYjeGE7JiN4YTsJJiN4YTsmI3hhOwkmI3hhOyYjeGE7CSYjeGE7JiN4YTsJJiN4YTsmI3hhOwkmI3hhOyYjeGE7CSYjeGE7JiN4YTsJJiN4YTsmI3hhOwkmI3hhOyYjeGE7CSYjeGE7JiN4YTsJJiN4YTsmI3hhOwkmI3hhOyYjeGE7CSYjeGE7JiN4YTsJJiN4YTsmI3hhOwkmI3hhOyYjeGE7CSYjeGE7JiN4YTsJJiN4YTsmI3hhOwkmI3hhOyYjeGE7CSYjeGE7JiN4YTsJJiN4YTsmI3hhOwkmI3hhOyYjeGE7CSYjeGE7JiN4YTsJJiN4YTsmI3hhOwkmI3hhOyYjeGE7CSYjeGE7JiN4YTsJJiN4YTsmI3hhOwkmI3hhOyYjeGE7CSYjeGE7JiN4YTsJJiN4YTsmI3hhOwkmI3hhOzwvZGVmcz4mI3hhOzxmaWx0ZXIgaWQ9ImZpbHRlcl8yIj4mI3hhOwk8ZmVHYXVzc2lhbkJsdXIgaWQ9ImZlR2F1c3NpYW5CbHVyNjUwNzMiIHN0ZERldmlhdGlvbj0iMiIvPiYjeGE7PC9maWx0ZXI+JiN4YTs8c29kaXBvZGk6bmFtZWR2aWV3IGJvcmRlcmNvbG9yPSIjNjY2NjY2IiBib3JkZXJvcGFjaXR5PSIxIiBmaXQtbWFyZ2luLWJvdHRvbT0iMCIgZml0LW1hcmdpbi1sZWZ0PSIwIiBmaXQtbWFyZ2luLXJpZ2h0PSIwIiBmaXQtbWFyZ2luLXRvcD0iMCIgZ3JpZHRvbGVyYW5jZT0iMTAiIGd1aWRldG9sZXJhbmNlPSIxMCIgaWQ9Im5hbWVkdmlldzY1MzI2IiBpbmtzY2FwZTpjdXJyZW50LWxheWVyPSJzdmc2NTMyNCIgaW5rc2NhcGU6Y3g9IjE2Ljc5NTQ4MyIgaW5rc2NhcGU6Y3k9IjE2LjMxNjg3NSIgaW5rc2NhcGU6cGFnZW9wYWNpdHk9IjAiIGlua3NjYXBlOnBhZ2VzaGFkb3c9IjIiIGlua3NjYXBlOndpbmRvdy1oZWlnaHQ9IjEwMTciIGlua3NjYXBlOndpbmRvdy1tYXhpbWl6ZWQ9IjEiIGlua3NjYXBlOndpbmRvdy13aWR0aD0iMTkyMCIgaW5rc2NhcGU6d2luZG93LXg9Ii04IiBpbmtzY2FwZTp3aW5kb3cteT0iLTgiIGlua3NjYXBlOnpvb209IjE0Ljk0ODI2OCIgb2JqZWN0dG9sZXJhbmNlPSIxMCIgcGFnZWNvbG9yPSIjZmZmZmZmIiBzaG93Z3JpZD0iZmFsc2UiPiYjeGE7CTwvc29kaXBvZGk6bmFtZWR2aWV3PiYjeGE7JiN4YTs8cmVjdCBpZD0icmVjdDY1MDg2IiB4PSIxNi4yNSIgeT0iMCIgc3R5bGU9ImZpbGw6IzU5YjRkOSIgd2lkdGg9IjUiIGhlaWdodD0iMy43NSIvPiYjeGE7JiN4YTs8cmVjdCBpZD0icmVjdDY1MDk0IiB4PSI4Ljc1IiB5PSIwIiBzdHlsZT0iZmlsbDojNTliNGQ5IiB3aWR0aD0iNSIgaGVpZ2h0PSIzLjc1Ii8+JiN4YTsmI3hhOzxwYXRoIGlkPSJwYXRoNjUxMDIiIGlua3NjYXBlOmNvbm5lY3Rvci1jdXJ2YXR1cmU9IjAiIHN0eWxlPSJmaWxsOiM1OWI0ZDkiIGQ9Im0gMzMuNzUwMDAxLDMzLjc1IGggLTIuNSB2IDMuNzUgaCAzLjc1IGMgMS4zOCwwIDIuNSwtMS4xMiAyLjUsLTIuNSB2IC0zLjc1IGggLTMuNzUgeiIvPiYjeGE7JiN4YTs8cmVjdCBpZD0icmVjdDY1MTEwIiB4PSIwIiB5PSIyMy43NSIgc3R5bGU9ImZpbGw6IzU5YjRkOSIgd2lkdGg9IjMuNzUiIGhlaWdodD0iNSIvPiYjeGE7JiN4YTs8cmVjdCBpZD0icmVjdDY1MTE4IiB4PSIxNi4yNSIgeT0iMzMuNzUiIHN0eWxlPSJmaWxsOiM1OWI0ZDkiIHdpZHRoPSI1IiBoZWlnaHQ9IjMuNzUiLz4mI3hhOyYjeGE7PHJlY3QgaWQ9InJlY3Q2NTEyNiIgeD0iMzMuNzUiIHk9IjIzLjc1IiBzdHlsZT0iZmlsbDojNTliNGQ5IiB3aWR0aD0iMy43NSIgaGVpZ2h0PSI1Ii8+JiN4YTsmI3hhOzxyZWN0IGlkPSJyZWN0NjUxMzQiIHg9IjIzLjc1IiB5PSIzMy43NSIgc3R5bGU9ImZpbGw6IzU5YjRkOSIgd2lkdGg9IjUiIGhlaWdodD0iMy43NSIvPiYjeGE7JiN4YTs8cmVjdCBpZD0icmVjdDY1MTQyIiB4PSI4Ljc1IiB5PSIzMy43NSIgc3R5bGU9ImZpbGw6IzU5YjRkOSIgd2lkdGg9IjUiIGhlaWdodD0iMy43NSIvPiYjeGE7JiN4YTs8cGF0aCBpZD0icGF0aDY1MTUwIiBpbmtzY2FwZTpjb25uZWN0b3ItY3VydmF0dXJlPSIwIiBzdHlsZT0iZmlsbDojNTliNGQ5IiBkPSJtIDMuNzUwMDAxMiwzMy43NSB2IC0yLjUgSCAxLjIyMDcwMzFlLTYgViAzNSBjIDAsMS4zOCAxLjExOTk5OTk3OTI5NjksMi41IDIuNDk5OTk5OTc5Mjk2OSwyLjUgaCAzLjc1IHYgLTMuNzUgeiIvPiYjeGE7JiN4YTs8cmVjdCBpZD0icmVjdDY1MTU4IiB4PSIwIiB5PSI4Ljc1IiBzdHlsZT0iZmlsbDojNTliNGQ5IiB3aWR0aD0iMy43NSIgaGVpZ2h0PSI1Ii8+JiN4YTsmI3hhOzxwYXRoIGlkPSJwYXRoNjUxNjYiIGlua3NjYXBlOmNvbm5lY3Rvci1jdXJ2YXR1cmU9IjAiIHN0eWxlPSJmaWxsOiM1OWI0ZDkiIGQ9Im0gMy43NTAwMDEyLDMuNzUgaCAyLjUgViAwIGggLTMuNzUgQyAxLjEyMDAwMTIsMCAxLjIyMDcwMzFlLTYsMS4xMiAxLjIyMDcwMzFlLTYsMi41IFYgNi4yNSBIIDMuNzUwMDAxMiBaIi8+JiN4YTsmI3hhOzxyZWN0IGlkPSJyZWN0NjUxNzQiIHg9IjAiIHk9IjE2LjI1IiBzdHlsZT0iZmlsbDojNTliNGQ5IiB3aWR0aD0iMy43NSIgaGVpZ2h0PSI1Ii8+JiN4YTsmI3hhOzxyZWN0IGlkPSJyZWN0NjUxODIiIHg9IjMzLjc1IiB5PSIxNi4yNSIgc3R5bGU9ImZpbGw6IzU5YjRkOSIgd2lkdGg9IjMuNzUiIGhlaWdodD0iNSIvPiYjeGE7JiN4YTs8cmVjdCBpZD0icmVjdDY1MTkwIiB4PSIzMy43NSIgeT0iOC43NSIgc3R5bGU9ImZpbGw6IzU5YjRkOSIgd2lkdGg9IjMuNzUiIGhlaWdodD0iNSIvPiYjeGE7JiN4YTs8cmVjdCBpZD0icmVjdDY1MTk4IiB4PSIyMy43NSIgeT0iMCIgc3R5bGU9ImZpbGw6IzU5YjRkOSIgd2lkdGg9IjUiIGhlaWdodD0iMy43NSIvPiYjeGE7JiN4YTs8cGF0aCBpZD0icGF0aDY1MjA2IiBpbmtzY2FwZTpjb25uZWN0b3ItY3VydmF0dXJlPSIwIiBzdHlsZT0iZmlsbDojNTliNGQ5IiBkPSJtIDMzLjc1MDAwMSwzLjc1IHYgMi41IGggMy43NSBWIDIuNSBjIDAsLTEuMzggLTEuMTIsLTIuNSAtMi41LC0yLjUgaCAtMy43NSB2IDMuNzUgeiIvPiYjeGE7JiN4YTs8cGF0aCBpZD0icGF0aDY1MjE0IiBpbmtzY2FwZTpjb25uZWN0b3ItY3VydmF0dXJlPSIwIiBzdHlsZT0iZmlsbDojYTBhMWEyIiBkPSJNIDI2LjQ5MDAwMSw2LjcyIEggNy40NjAwMDEyIGMgLTAuNjUsMCAtMS4xNywwLjU4IC0xLjE3LDEuMjIgViAyMS4yIGMgMCwwLjY0IDAuNTIsMS4yMSAxLjE3LDEuMjEgSCAyNi40OTAwMDEgYyAwLjY1LDAgMS4zLC0wLjU3IDEuMywtMS4yMSBWIDcuOTQgYyAwLC0wLjY1IC0wLjY1LC0xLjIyIC0xLjMsLTEuMjIgeiIvPiYjeGE7JiN4YTs8cGF0aCBpZD0icGF0aDY1MjIyIiBpbmtzY2FwZTpjb25uZWN0b3ItY3VydmF0dXJlPSIwIiBzdHlsZT0iZmlsbDojZmZmZmZmO2ZpbGwtb3BhY2l0eTowLjIiIGQ9Im0gMjYuNTEwMDAxLDYuNzIgYyAtMC4wMSwwIC0wLjAxLDAgLTAuMDIsMCBIIDcuNDYwMDAxMiBjIC0wLjY1LDAgLTEuMTcsMC41OCAtMS4xNywxLjIyIFYgMjEuMiBjIDAsMC42NCAwLjUyLDEuMjEgMS4xNywxLjIxIGggMC40NSB6Ii8+JiN4YTsmI3hhOzxwYXRoIGlkPSJwYXRoNjUyMzAiIGlua3NjYXBlOmNvbm5lY3Rvci1jdXJ2YXR1cmU9IjAiIHN0eWxlPSJmaWxsOiM1OWI0ZDkiIGQ9Ik0gMjYuMTYwMDAxLDIwLjc2IEggNy45MjAwMDEyIFYgOC4zNyBMIDI2LjE2MDAwMSw4LjM1IFoiLz4mI3hhOyYjeGE7PHBhdGggaWQ9InBhdGg2NTIzOCIgaW5rc2NhcGU6Y29ubmVjdG9yLWN1cnZhdHVyZT0iMCIgc3R5bGU9ImZpbGw6I2I4ZDQzMiIgZD0ibSAxNy4yNzAwMDEsNy42MiBjIDAsMC4xNiAtMC4xNCwwLjMgLTAuMzEsMC4zIC0wLjE2LDAgLTAuMywtMC4xNCAtMC4zLC0wLjMgMCwtMC4xNyAwLjE0LC0wLjMxIDAuMywtMC4zMSAwLjE3LDAgMC4zMSwwLjE0IDAuMzEsMC4zMSB6Ii8+JiN4YTsmI3hhOzxwYXRoIGlkPSJwYXRoNjUyNDYiIGlua3NjYXBlOmNvbm5lY3Rvci1jdXJ2YXR1cmU9IjAiIHN0eWxlPSJmaWxsOiNmZmZmZmYiIGQ9Im0gMTcuMjgwMDAxLDE0LjE5IGMgLTAuMDIsMCAtMC4wNCwtMC4wMSAtMC4wNiwtMC4wMiBsIC0zLjc4LC0yLjE4IGMgLTAuMDQsLTAuMDIgLTAuMDYsLTAuMDYgLTAuMDYsLTAuMSAwLC0wLjA0IDAuMDIsLTAuMDggMC4wNiwtMC4xIGwgMy43NiwtMi4xNyBjIDAuMDQsLTAuMDEgMC4wOCwtMC4wMSAwLjExLDAgbCAzLjc5LDIuMTkgYyAwLjA0LDAuMDIgMC4wNiwwLjA2IDAuMDYsMC4xIDAsMC4wNCAtMC4wMiwwLjA4IC0wLjA2LDAuMSBsIC0zLjc2LDIuMTYgYyAtMC4wMiwwLjAxIC0wLjA0LDAuMDIgLTAuMDYsMC4wMiB6Ii8+JiN4YTsmI3hhOzxwYXRoIGlkPSJwYXRoNjUyNTQiIGlua3NjYXBlOmNvbm5lY3Rvci1jdXJ2YXR1cmU9IjAiIHN0eWxlPSJmaWxsOiM3YTdhN2EiIGQ9Im0gMjMuNjUwMDAxLDI2LjY1IGggLTAuNTEgLTUuMDcgLTAuMjYgYyAwLjcsMi40OCAtMC4yNSwyLjgzIC00LjM4LDIuODMgdiAxLjMgaCA1LjI2IDMuODQgNC45NiB2IC0xLjMgYyAtNC4xNCwwIC00LjU0LC0wLjM1IC0zLjg0LC0yLjgzIHoiLz4mI3hhOyYjeGE7PHBhdGggaWQ9InBhdGg2NTI2MiIgaW5rc2NhcGU6Y29ubmVjdG9yLWN1cnZhdHVyZT0iMCIgc3R5bGU9ImZpbGw6I2EwYTFhMiIgZD0ibSAyOS45MDAwMDEsMTAuOTYgaCAtMTkuMDMgYyAtMC42NSwwIC0xLjE2OTk5OTgsMC41OCAtMS4xNjk5OTk4LDEuMjIgdiAxMy4yNiBjIDAsMC42NCAwLjUxOTk5OTgsMS4yMSAxLjE2OTk5OTgsMS4yMSBoIDE5LjAzIGMgMC42NSwwIDEuMywtMC41NyAxLjMsLTEuMjEgViAxMi4xOCBjIDAsLTAuNjUgLTAuNjUsLTEuMjIgLTEuMywtMS4yMiB6Ii8+JiN4YTsmI3hhOzxwYXRoIGlkPSJwYXRoNjUyNzAiIGlua3NjYXBlOmNvbm5lY3Rvci1jdXJ2YXR1cmU9IjAiIHN0eWxlPSJmaWxsOiNmZmZmZmY7ZmlsbC1vcGFjaXR5OjAuMiIgZD0ibSAyOS45MjAwMDEsMTAuOTYgYyAtMC4wMSwwIC0wLjAxLDAgLTAuMDIsMCBoIC0xOS4wMyBjIC0wLjY1LDAgLTEuMTY5OTk5OCwwLjU4IC0xLjE2OTk5OTgsMS4yMiB2IDEzLjI2IGMgMCwwLjY0IDAuNTE5OTk5OCwxLjIxIDEuMTY5OTk5OCwxLjIxIGggMC40NSB6Ii8+JiN4YTsmI3hhOzxwYXRoIGlkPSJwYXRoNjUyNzgiIGlua3NjYXBlOmNvbm5lY3Rvci1jdXJ2YXR1cmU9IjAiIHN0eWxlPSJmaWxsOiM1OWI0ZDkiIGQ9Im0gMjkuNTcwMDAxLDI1IGggLTE4LjI0IFYgMTIuNjEgbCAxOC4yNCwtMC4wMiB6Ii8+JiN4YTsmI3hhOzxyZWN0IGlkPSJyZWN0NjUyODYiIHg9IjEzLjQzIiB5PSIyOS40OCIgc3R5bGU9ImZpbGw6I2EwYTFhMiIgd2lkdGg9IjE0LjA2IiBoZWlnaHQ9IjEuMyIvPiYjeGE7JiN4YTs8cGF0aCBpZD0icGF0aDY1Mjk0IiBpbmtzY2FwZTpjb25uZWN0b3ItY3VydmF0dXJlPSIwIiBzdHlsZT0iZmlsbDojYjhkNDMyIiBkPSJtIDIwLjY4MDAwMSwxMS44NyBjIDAsMC4xNiAtMC4xNCwwLjMgLTAuMzEsMC4zIC0wLjE2LDAgLTAuMywtMC4xNCAtMC4zLC0wLjMgMCwtMC4xNyAwLjE0LC0wLjMxIDAuMywtMC4zMSAwLjE3LDAgMC4zMSwwLjE0IDAuMzEsMC4zMSB6Ii8+JiN4YTsmI3hhOzxwYXRoIGlkPSJwYXRoNjUzMDIiIGlua3NjYXBlOmNvbm5lY3Rvci1jdXJ2YXR1cmU9IjAiIHN0eWxlPSJmaWxsOiNmZmZmZmYiIGQ9Im0gMjAuNjkwMDAxLDE4LjQzIGMgLTAuMDIsMCAtMC4wNCwtMC4wMSAtMC4wNiwtMC4wMiBsIC0zLjc4LC0yLjE4IGMgLTAuMDQsLTAuMDIgLTAuMDYsLTAuMDYgLTAuMDYsLTAuMSAwLC0wLjA0IDAuMDIsLTAuMDggMC4wNiwtMC4xIGwgMy43NiwtMi4xNyBjIDAuMDQsLTAuMDEgMC4wOCwtMC4wMSAwLjExLDAgbCAzLjc5LDIuMTkgYyAwLjA0LDAuMDIgMC4wNiwwLjA2IDAuMDYsMC4xIDAsMC4wNCAtMC4wMiwwLjA4IC0wLjA2LDAuMSBsIC0zLjc2LDIuMTYgYyAtMC4wMiwwLjAxIC0wLjA0LDAuMDIgLTAuMDYsMC4wMiB6Ii8+JiN4YTsmI3hhOzxwYXRoIGlkPSJwYXRoNjUzMTAiIGlua3NjYXBlOmNvbm5lY3Rvci1jdXJ2YXR1cmU9IjAiIHN0eWxlPSJmaWxsOiNmZmZmZmY7ZmlsbC1vcGFjaXR5OjAuNyIgZD0ibSAyMC4xNDAwMDEsMjMuNzQgYyAtMC4wMiwwIC0wLjA0LC0wLjAxIC0wLjA2LC0wLjAxIGwgLTMuNzcsLTIuMTggYyAtMC4wNCwtMC4wMiAtMC4wNiwtMC4wNiAtMC4wNiwtMC4xIHYgLTQuMzcgYyAwLC0wLjA0IDAuMDIsLTAuMDcgMC4wNiwtMC4xIDAuMDMsLTAuMDIgMC4wOCwtMC4wMiAwLjExLDAgbCAzLjc4LDIuMTggYyAwLjAzLDAuMDIgMC4wNSwwLjA2IDAuMDUsMC4xIHYgNC4zNyBjIDAsMC4wNCAtMC4wMiwwLjA3IC0wLjA1LDAuMSAtMC4wMiwwIC0wLjA0LDAuMDEgLTAuMDYsMC4wMSB6Ii8+JiN4YTsmI3hhOzxwYXRoIGlkPSJwYXRoNjUzMTgiIGlua3NjYXBlOmNvbm5lY3Rvci1jdXJ2YXR1cmU9IjAiIHN0eWxlPSJmaWxsOiNmZmZmZmY7ZmlsbC1vcGFjaXR5OjAuNCIgZD0ibSAyMS4yMTAwMDEsMjMuNzQgYyAtMC4wMiwwIC0wLjA0LC0wLjAxIC0wLjA1LC0wLjAxIC0wLjA0LC0wLjAzIC0wLjA2LC0wLjA2IC0wLjA2LC0wLjEgdiAtNC4zNCBjIDAsLTAuMDQgMC4wMiwtMC4wOCAwLjA2LC0wLjEgbCAzLjc3LC0yLjE4IGMgMC4wNCwtMC4wMiAwLjA4LC0wLjAyIDAuMTEsMCAwLjA0LDAuMDIgMC4wNiwwLjA2IDAuMDYsMC4xIHYgNC4zNCBjIDAsMC4wNCAtMC4wMiwwLjA4IC0wLjA2LDAuMSBsIC0zLjc3LDIuMTggYyAtMC4wMiwwIC0wLjA0LDAuMDEgLTAuMDYsMC4wMSB6Ii8+JiN4YTs8L3N2Zz4=;rounded=1;sketch=0;fillColor=#F08E81;strokeColor=#FFFFFF;fontColor=#1A1A1A;" parent="aAHrELg9xsdT0Ef0R614-1" vertex="1">
          <mxGeometry x="163.89999999999998" y="-310" width="20" height="20" as="geometry" />
        </mxCell>
        <mxCell id="JJHdtYMbySOfqmpjJNIa-122" value="Availability Set: Web-Set" style="text;html=1;resizable=0;autosize=1;align=center;verticalAlign=middle;points=[];fillColor=none;strokeColor=none;rounded=0;sketch=0;fontColor=#1A1A1A;" parent="aAHrELg9xsdT0Ef0R614-1" vertex="1">
          <mxGeometry x="191.5" y="-310" width="150" height="20" as="geometry" />
        </mxCell>
        <mxCell id="40kehN558C5E-bG9N4KD-3" value="HTTP" style="text;html=1;resizable=0;autosize=1;align=center;verticalAlign=middle;points=[];fillColor=none;strokeColor=none;fontStyle=1;fontSize=9;rounded=1;fontColor=#1A1A1A;" parent="aAHrELg9xsdT0Ef0R614-1" vertex="1">
          <mxGeometry x="240" y="-1049.7" width="40" height="20" as="geometry" />
        </mxCell>
        <mxCell id="JJHdtYMbySOfqmpjJNIa-134" value="" style="edgeStyle=none;rounded=1;orthogonalLoop=1;jettySize=auto;html=1;strokeColor=#182E3E;fontColor=#1A1A1A;labelBackgroundColor=#B0E3E6;endArrow=none;" parent="aAHrELg9xsdT0Ef0R614-1" source="6x18IhxCGqgeIF1ldsVK-0" target="40kehN558C5E-bG9N4KD-3" edge="1">
          <mxGeometry relative="1" as="geometry">
            <mxPoint x="350" y="-1040" as="targetPoint" />
            <mxPoint x="165" y="-1039.7823529411767" as="sourcePoint" />
          </mxGeometry>
        </mxCell>
        <mxCell id="-fyCOlzWIuNnIxvk7xNq-0" value="" style="shape=image;verticalLabelPosition=bottom;labelBackgroundColor=#ffffff;verticalAlign=top;aspect=fixed;imageAspect=0;image=data:image/svg+xml,PHN2ZyB4bWxuczpjYz0iaHR0cDovL2NyZWF0aXZlY29tbW9ucy5vcmcvbnMjIiB4bWxuczpkYz0iaHR0cDovL3B1cmwub3JnL2RjL2VsZW1lbnRzLzEuMS8iIHhtbG5zOmlua3NjYXBlPSJodHRwOi8vd3d3Lmlua3NjYXBlLm9yZy9uYW1lc3BhY2VzL2lua3NjYXBlIiB4bWxuczpyZGY9Imh0dHA6Ly93d3cudzMub3JnLzE5OTkvMDIvMjItcmRmLXN5bnRheC1ucyMiIHhtbG5zOnNvZGlwb2RpPSJodHRwOi8vc29kaXBvZGkuc291cmNlZm9yZ2UubmV0L0RURC9zb2RpcG9kaS0wLmR0ZCIgeG1sbnM6c3ZnPSJodHRwOi8vd3d3LnczLm9yZy8yMDAwL3N2ZyIgeG1sbnM9Imh0dHA6Ly93d3cudzMub3JnLzIwMDAvc3ZnIiB4bWxuczp4bGluaz0iaHR0cDovL3d3dy53My5vcmcvMTk5OS94bGluayIgdmVyc2lvbj0iMS4xIiBpZD0ic3ZnNDk5MDUiIGlua3NjYXBlOnZlcnNpb249IjAuOTIuMyAoMjQwNTU0NiwgMjAxOC0wMy0xMSkiIHNvZGlwb2RpOmRvY25hbWU9ImF1ZGl0X2xvZ3Muc3ZnIiB4PSIwcHgiIHk9IjBweCIgdmlld0JveD0iMCAwIDIwLjg2IDI0LjA1IiBzdHlsZT0iZW5hYmxlLWJhY2tncm91bmQ6bmV3IDAgMCAyMC44NiAyNC4wNTsiIHhtbDpzcGFjZT0icHJlc2VydmUiPiYjeGE7PHNvZGlwb2RpOm5hbWVkdmlldyBib3JkZXJjb2xvcj0iIzY2NjY2NiIgYm9yZGVyb3BhY2l0eT0iMSIgZml0LW1hcmdpbi1ib3R0b209IjAiIGZpdC1tYXJnaW4tbGVmdD0iMCIgZml0LW1hcmdpbi1yaWdodD0iMCIgZml0LW1hcmdpbi10b3A9IjAiIGdyaWR0b2xlcmFuY2U9IjEwIiBndWlkZXRvbGVyYW5jZT0iMTAiIGlkPSJuYW1lZHZpZXc0OTkwNyIgaW5rc2NhcGU6Y3VycmVudC1sYXllcj0ic3ZnNDk5MDUiIGlua3NjYXBlOmN4PSIyMy4wNzE3NjkiIGlua3NjYXBlOmN5PSIxNi4wMzkxNjgiIGlua3NjYXBlOnBhZ2VvcGFjaXR5PSIwIiBpbmtzY2FwZTpwYWdlc2hhZG93PSIyIiBpbmtzY2FwZTp3aW5kb3ctaGVpZ2h0PSIxMDE3IiBpbmtzY2FwZTp3aW5kb3ctbWF4aW1pemVkPSIxIiBpbmtzY2FwZTp3aW5kb3ctd2lkdGg9IjE5MjAiIGlua3NjYXBlOndpbmRvdy14PSItOCIgaW5rc2NhcGU6d2luZG93LXk9Ii04IiBpbmtzY2FwZTp6b29tPSIxOS4xMjI1MTEiIG9iamVjdHRvbGVyYW5jZT0iMTAiIHBhZ2Vjb2xvcj0iI2ZmZmZmZiIgc2hvd2dyaWQ9ImZhbHNlIj4mI3hhOwk8L3NvZGlwb2RpOm5hbWVkdmlldz4mI3hhOzxnIGlkPSJnNDk5MDMiPiYjeGE7CTx0aXRsZSBpZD0idGl0bGU0OTg4MyI+UGFnZS0xPC90aXRsZT4mI3hhOwk8ZyBpZD0iZ3JvdXA0NjY1LTEiPiYjeGE7CQk8dGl0bGUgaWQ9InRpdGxlNDk4ODUiPkF1ZGl0IExvZ3M8L3RpdGxlPiYjeGE7CQk8ZyBpZD0ic2hhcGU0NjY2LTIiIHRyYW5zZm9ybT0idHJhbnNsYXRlKDEuMjAxMjIsLTAuMzI3NTA2KSI+JiN4YTsJCQk8dGl0bGUgaWQ9InRpdGxlNDk4ODciPlNoZWV0LjQ2NjY8L3RpdGxlPiYjeGE7CQkJPHBhdGggaWQ9InBhdGg0OTg4OSIgaW5rc2NhcGU6Y29ubmVjdG9yLWN1cnZhdHVyZT0iMCIgc3R5bGU9ImZpbGw6I0YxRUJFNzsiIGQ9Ik0xLjE3LDEuNTNsMTcuNTIsMC4xNGwwLjIsMjEuNDFsLTEuMjMsMC42OSAgICAgbC0wLjYyLDAuMjdWMi45MUwwLDIuOThMMS4xNywxLjUzeiIvPiYjeGE7CQk8L2c+JiN4YTsJCTxnIGlkPSJzaGFwZTQ2NjctNCI+JiN4YTsJCQk8dGl0bGUgaWQ9InRpdGxlNDk4OTIiPlNoZWV0LjQ2Njc8L3RpdGxlPiYjeGE7CQkJPHBhdGggaWQ9InBhdGg0OTg5NCIgaW5rc2NhcGU6Y29ubmVjdG9yLWN1cnZhdHVyZT0iMCIgc3R5bGU9ImZpbGw6IzAwNzJDNjsiIGQ9Ik0yLjQsMS4zN2wxNy4zNywwLjA4bC0wLjI4LDIxLjYyaDEuMyAgICAgYzAuMDMtNy42NywwLjA1LTE1LjMzLDAuMDctMjIuOTlMMS43MiwwTDAsMS45OWMwLjA4LDcuMSwwLjE0LDE0LjE5LDAuMjEsMjEuMjhjMC4yMywwLjIxLDAuMDMsMC42MSwzLjAzLDAuNzMgICAgIGMzLDAuMTIsOS4yMS0wLjA0LDE0Ljk4LDBjMC4wNy02Ljk4LDAuMDMtMTQuMzQsMC4xMS0yMS4zMkwxLjM4LDIuNTRMMi40LDEuMzd6Ii8+JiN4YTsJCTwvZz4mI3hhOwkJPGcgaWQ9InNoYXBlNDY2OC02IiB0cmFuc2Zvcm09InRyYW5zbGF0ZSg0LjkxNDA3LC0xMi42NzgpIj4mI3hhOwkJCTx0aXRsZSBpZD0idGl0bGU0OTg5NyI+U2hlZXQuNDY2ODwvdGl0bGU+JiN4YTsJCQk8cGF0aCBpZD0icGF0aDQ5ODk5IiBpbmtzY2FwZTpjb25uZWN0b3ItY3VydmF0dXJlPSIwIiBzdHlsZT0iZmlsbDojRkZGRkZGOyIgZD0iTTAsMjAuNGMwLTAuNCwwLjMzLTAuNzMsMC43My0wLjczaDguMTYgICAgIGMwLjQsMCwwLjcyLDAuMzMsMC43MiwwLjczdjIuOTJjMCwwLjQtMC4zMiwwLjcyLTAuNzIsMC43MkgwLjczYy0wLjQsMC0wLjczLTAuMzItMC43My0wLjcyVjIwLjR6Ii8+JiN4YTsJCTwvZz4mI3hhOwk8L2c+JiN4YTs8L2c+JiN4YTs8L3N2Zz4=;gradientColor=none;" parent="aAHrELg9xsdT0Ef0R614-1" vertex="1">
          <mxGeometry x="765" y="-221" width="30.19" height="34.5" as="geometry" />
        </mxCell>
        <mxCell id="-fyCOlzWIuNnIxvk7xNq-4" value="" style="aspect=fixed;html=1;points=[];align=center;image;fontSize=12;image=img/lib/azure2/other/SSH_Keys.svg;gradientColor=none;" parent="aAHrELg9xsdT0Ef0R614-1" vertex="1">
          <mxGeometry x="146.66" y="-996.9000000000001" width="28.34" height="25" as="geometry" />
        </mxCell>
        <mxCell id="-fyCOlzWIuNnIxvk7xNq-10" value="SSH&lt;br&gt;HTTP" style="text;html=1;resizable=0;autosize=1;align=center;verticalAlign=middle;points=[];fillColor=none;strokeColor=none;fontStyle=1;fontSize=9;rounded=1;fontColor=#1A1A1A;" parent="aAHrELg9xsdT0Ef0R614-1" vertex="1">
          <mxGeometry x="340" y="-940" width="40" height="30" as="geometry" />
        </mxCell>
        <mxCell id="-fyCOlzWIuNnIxvk7xNq-11" value="" style="edgeStyle=elbowEdgeStyle;rounded=1;orthogonalLoop=1;jettySize=auto;elbow=vertical;html=1;exitX=0.5;exitY=1;exitDx=0;exitDy=0;exitPerimeter=0;fontSize=14;endArrow=none;" parent="aAHrELg9xsdT0Ef0R614-1" source="JJHdtYMbySOfqmpjJNIa-16" target="-fyCOlzWIuNnIxvk7xNq-10" edge="1">
          <mxGeometry relative="1" as="geometry">
            <mxPoint x="445" y="-984.7" as="sourcePoint" />
            <mxPoint x="260" y="-855" as="targetPoint" />
          </mxGeometry>
        </mxCell>
        <mxCell id="-fyCOlzWIuNnIxvk7xNq-12" value="HTTP" style="text;html=1;resizable=0;autosize=1;align=center;verticalAlign=middle;points=[];fillColor=none;strokeColor=none;fontStyle=1;fontSize=9;rounded=1;fontColor=#1A1A1A;" parent="aAHrELg9xsdT0Ef0R614-1" vertex="1">
          <mxGeometry x="540" y="-932.5" width="40" height="20" as="geometry" />
        </mxCell>
        <mxCell id="-fyCOlzWIuNnIxvk7xNq-13" value="" style="edgeStyle=elbowEdgeStyle;rounded=1;orthogonalLoop=1;jettySize=auto;elbow=vertical;html=1;entryX=0.5;entryY=0;entryDx=0;entryDy=0;entryPerimeter=0;fontSize=14;exitX=0.594;exitY=0.997;exitDx=0;exitDy=0;exitPerimeter=0;endArrow=none;" parent="aAHrELg9xsdT0Ef0R614-1" source="JJHdtYMbySOfqmpjJNIa-16" target="-fyCOlzWIuNnIxvk7xNq-12" edge="1">
          <mxGeometry relative="1" as="geometry">
            <mxPoint x="460.98" y="-985.0300000000001" as="sourcePoint" />
            <mxPoint x="689.0899999999999" y="-855" as="targetPoint" />
          </mxGeometry>
        </mxCell>
        <mxCell id="-fyCOlzWIuNnIxvk7xNq-15" value="" style="aspect=fixed;html=1;points=[];align=center;image;fontSize=12;image=img/lib/mscae/Docker.svg;fillColor=none;rounded=1;strokeColor=#FFFFFF;fontColor=#1A1A1A;labelBackgroundColor=#B0E3E6;" parent="aAHrELg9xsdT0Ef0R614-1" vertex="1">
          <mxGeometry x="439" y="-228.75" width="60.97" height="50" as="geometry" />
        </mxCell>
        <mxCell id="aCi_n9hbZvkO9wYQih23-13" value="Jumpbox VM&lt;br&gt;Ansible&lt;br&gt;Public IP: 20.106.163.97&lt;br&gt;Private IP: 10.0.0.4" style="text;html=1;resizable=0;autosize=1;align=center;verticalAlign=middle;points=[];fillColor=none;strokeColor=none;rounded=1;fontColor=#1A1A1A;" parent="aAHrELg9xsdT0Ef0R614-1" vertex="1">
          <mxGeometry x="50" y="-660" width="150" height="60" as="geometry" />
        </mxCell>
        <mxCell id="aCi_n9hbZvkO9wYQih23-16" value="Azure Load Balancer&lt;br&gt;&amp;nbsp;20.124.106.55&lt;div class=&quot;fxs-copyfield-wrapper&quot; style=&quot;font-weight: inherit ; font-size: 13px ; position: absolute ; top: 0px ; right: 0px ; width: 24px ; height: 18px ; outline: none&quot;&gt;&lt;div class=&quot;fxs-copyfield fxc-base msportalfx-form-formelement&quot; style=&quot;font-weight: inherit ; position: absolute ; width: 24px ; top: 0px ; right: 0px ; opacity: 1 ; outline: none&quot;&gt;&lt;div class=&quot;azc-formElementSubLabelContainer&quot; style=&quot;font-weight: inherit ; outline: none&quot;&gt;&lt;div class=&quot;azc-formElementContainer&quot; style=&quot;font-weight: inherit ; outline: none&quot;&gt;&lt;div class=&quot;fxc-copyablelabel fxc-copyablelabel-disabled&quot; style=&quot;font-weight: inherit ; overflow: hidden ; padding: 0px ; background-color: transparent ; margin: -3px 0px -3px -0.5px ; outline: none&quot;&gt;&lt;div class=&quot;fxc-copyablelabel-copybutton fxc-copyablelabel-alignbutton fxc-base azc-control azc-button fxt-button fxs-inner-solid-border azc-button-default fxs-portal-button-primary&quot; tabindex=&quot;0&quot; style=&quot;align-items: center ; justify-content: center ; border-width: 0px ; border-style: solid ; box-sizing: border-box ; overflow: hidden ; min-width: 0px ; padding: 2px 1px 0px ; height: 24px ; cursor: pointer ; text-align: center ; line-height: 1.385 ; background: none rgb(255 , 255 , 255) ; color: rgb(255 , 255 , 255) ; outline-width: 1px ; border-radius: 2px ; text-overflow: ellipsis ; position: relative ; float: right ; display: table ; margin: 0px ; border-color: rgb(0 , 120 , 212) ; font-family: &amp;#34;az_ea_font&amp;#34; , &amp;#34;segoe ui&amp;#34; , &amp;#34;az_font&amp;#34; , , , &amp;#34;system-ui&amp;#34; , &amp;#34;roboto&amp;#34; , &amp;#34;oxygen&amp;#34; , &amp;#34;ubuntu&amp;#34; , &amp;#34;cantarell&amp;#34; , &amp;#34;open sans&amp;#34; , &amp;#34;helvetica neue&amp;#34; , sans-serif ; outline-style: none&quot;&gt;&lt;div class=&quot;fxc-copyablelabel-clicked fxc-copyablelabel-anchor&quot; style=&quot;font-weight: inherit ; position: absolute ; height: 0px ; width: 12px ; top: 4.79688px ; left: 6px ; outline: none&quot;&gt;&lt;/div&gt;&lt;div class=&quot;fxc-copyablelabel-hover fxc-copyablelabel-anchor fxc-base fxc-dockedballoon azc-control azc-control-disabled azc-dockedballoon azc-dockedballoon-validation azc-bg-default&quot; style=&quot;font-weight: inherit ; display: inline-block ; vertical-align: top ; box-sizing: border-box ; border-color: rgba(127 , 127 , 127 , 0.7) ; position: absolute ; height: 0px ; width: 12px ; top: 4.79688px ; left: 6px ; outline: none&quot;&gt;&lt;div class=&quot;azc-dockedballoon-anchor&quot; tabindex=&quot;0&quot; style=&quot;font-size: 12px ; font-weight: bold ; cursor: pointer ; line-height: 16px ; visibility: hidden ; outline: none&quot;&gt;&lt;span class=&quot;azc-nonFabric-svg&quot; style=&quot;font-weight: inherit ; outline: none&quot;&gt;&lt;/span&gt;&lt;/div&gt;&lt;/div&gt;&lt;div class=&quot;fxc-copyablelabel-copyimage&quot; style=&quot;font-weight: inherit ; vertical-align: middle ; padding: 3px ; width: 22px ; height: 22px ; box-sizing: border-box ; display: inline-block ; outline: none&quot;&gt;&lt;/div&gt;&lt;/div&gt;&lt;br class=&quot;Apple-interchange-newline&quot;&gt;&lt;/div&gt;&lt;/div&gt;&lt;/div&gt;&lt;/div&gt;&lt;/div&gt;" style="text;html=1;resizable=0;autosize=1;align=center;verticalAlign=middle;points=[];fillColor=none;strokeColor=none;rounded=1;fontColor=#1A1A1A;" parent="aAHrELg9xsdT0Ef0R614-1" vertex="1">
          <mxGeometry x="360" y="-650" width="130" height="30" as="geometry" />
        </mxCell>
        <mxCell id="-fyCOlzWIuNnIxvk7xNq-33" value="" style="edgeStyle=elbowEdgeStyle;orthogonalLoop=1;jettySize=auto;elbow=vertical;html=1;exitX=0.975;exitY=0.45;exitDx=0;exitDy=0;exitPerimeter=0;fontSize=14;endArrow=none;startArrow=none;rounded=1;" parent="aAHrELg9xsdT0Ef0R614-1" source="JJHdtYMbySOfqmpjJNIa-97" edge="1">
          <mxGeometry relative="1" as="geometry">
            <mxPoint x="360" y="-697" as="sourcePoint" />
            <mxPoint x="425" y="-657" as="targetPoint" />
            <Array as="points">
              <mxPoint x="390" y="-700" />
              <mxPoint x="420" y="-677" />
              <mxPoint x="410" y="-677" />
              <mxPoint x="370" y="-687" />
              <mxPoint x="390" y="-700" />
            </Array>
          </mxGeometry>
        </mxCell>
        <mxCell id="JJHdtYMbySOfqmpjJNIa-97" value="HTTP" style="text;html=1;resizable=0;autosize=1;align=center;verticalAlign=middle;points=[];fillColor=none;strokeColor=none;rounded=1;fontSize=10;fontStyle=1;rotation=0;fontColor=#1A1A1A;" parent="aAHrELg9xsdT0Ef0R614-1" vertex="1">
          <mxGeometry x="319.9999999999999" y="-710" width="40" height="20" as="geometry" />
        </mxCell>
        <mxCell id="-fyCOlzWIuNnIxvk7xNq-34" value="" style="edgeStyle=elbowEdgeStyle;orthogonalLoop=1;jettySize=auto;elbow=vertical;html=1;exitX=0.5;exitY=1;exitDx=0;exitDy=0;exitPerimeter=0;fontSize=14;endArrow=none;curved=1;" parent="aAHrELg9xsdT0Ef0R614-1" source="JJHdtYMbySOfqmpjJNIa-22" target="JJHdtYMbySOfqmpjJNIa-97" edge="1">
          <mxGeometry relative="1" as="geometry">
            <mxPoint x="260" y="-750" as="sourcePoint" />
            <mxPoint x="425" y="-650" as="targetPoint" />
            <Array as="points">
              <mxPoint x="320" y="-700" />
              <mxPoint x="450" y="-700" />
            </Array>
          </mxGeometry>
        </mxCell>
        <mxCell id="JJHdtYMbySOfqmpjJNIa-136" value="SSH" style="text;html=1;resizable=0;autosize=1;align=center;verticalAlign=middle;points=[];fillColor=none;strokeColor=none;rounded=0;sketch=0;fontColor=#1A1A1A;fontSize=10;fontStyle=1;rotation=0;" parent="aAHrELg9xsdT0Ef0R614-1" vertex="1">
          <mxGeometry x="168.57" y="-710" width="40" height="20" as="geometry" />
        </mxCell>
        <mxCell id="-fyCOlzWIuNnIxvk7xNq-37" value="" style="edgeStyle=elbowEdgeStyle;orthogonalLoop=1;jettySize=auto;elbow=vertical;html=1;exitX=0.5;exitY=1;exitDx=0;exitDy=0;exitPerimeter=0;fontSize=10;endArrow=none;curved=1;" parent="aAHrELg9xsdT0Ef0R614-1" source="JJHdtYMbySOfqmpjJNIa-22" target="JJHdtYMbySOfqmpjJNIa-136" edge="1">
          <mxGeometry relative="1" as="geometry">
            <mxPoint x="260" y="-750" as="sourcePoint" />
            <mxPoint x="125" y="-660" as="targetPoint" />
            <Array as="points">
              <mxPoint x="230" y="-700" />
            </Array>
          </mxGeometry>
        </mxCell>
        <mxCell id="-fyCOlzWIuNnIxvk7xNq-46" value="SSH" style="text;html=1;resizable=0;autosize=1;align=center;verticalAlign=middle;points=[];fillColor=none;strokeColor=none;rounded=0;sketch=0;fontColor=#1A1A1A;fontSize=10;fontStyle=1;rotation=0;" parent="aAHrELg9xsdT0Ef0R614-1" vertex="1">
          <mxGeometry x="258.5" y="-370" width="40" height="20" as="geometry" />
        </mxCell>
        <mxCell id="-fyCOlzWIuNnIxvk7xNq-47" value="" style="edgeStyle=elbowEdgeStyle;orthogonalLoop=1;jettySize=auto;elbow=vertical;html=1;exitX=0.5;exitY=1;exitDx=0;exitDy=0;exitPerimeter=0;fontSize=10;rounded=1;endArrow=none;" parent="aAHrELg9xsdT0Ef0R614-1" source="JJHdtYMbySOfqmpjJNIa-27" target="-fyCOlzWIuNnIxvk7xNq-46" edge="1">
          <mxGeometry relative="1" as="geometry">
            <mxPoint x="125" y="-421.3600000000001" as="sourcePoint" />
            <mxPoint x="370" y="-280" as="targetPoint" />
            <Array as="points">
              <mxPoint x="180" y="-360" />
              <mxPoint x="200" y="-350" />
            </Array>
          </mxGeometry>
        </mxCell>
        <mxCell id="-fyCOlzWIuNnIxvk7xNq-50" value="SSH" style="text;html=1;resizable=0;autosize=1;align=center;verticalAlign=middle;points=[];fillColor=none;strokeColor=none;rounded=0;sketch=0;fontColor=#1A1A1A;fontSize=10;fontStyle=1;rotation=0;" parent="aAHrELg9xsdT0Ef0R614-1" vertex="1">
          <mxGeometry x="104.72999999999999" y="-340" width="40" height="20" as="geometry" />
        </mxCell>
        <mxCell id="-fyCOlzWIuNnIxvk7xNq-51" value="" style="edgeStyle=elbowEdgeStyle;orthogonalLoop=1;jettySize=auto;elbow=vertical;html=1;exitX=0.5;exitY=1;exitDx=0;exitDy=0;exitPerimeter=0;fontSize=10;rounded=1;endArrow=none;entryX=0.5;entryY=-0.25;entryDx=0;entryDy=0;entryPerimeter=0;" parent="aAHrELg9xsdT0Ef0R614-1" source="JJHdtYMbySOfqmpjJNIa-27" target="-fyCOlzWIuNnIxvk7xNq-50" edge="1">
          <mxGeometry relative="1" as="geometry">
            <mxPoint x="125" y="-421.3600000000001" as="sourcePoint" />
            <mxPoint x="90" y="-350" as="targetPoint" />
            <Array as="points">
              <mxPoint x="90" y="-360" />
              <mxPoint x="80" y="-350" />
            </Array>
          </mxGeometry>
        </mxCell>
        <mxCell id="-fyCOlzWIuNnIxvk7xNq-53" value="&lt;b style=&quot;font-size: 9px&quot;&gt;HTTP&lt;/b&gt;" style="text;html=1;resizable=0;autosize=1;align=center;verticalAlign=middle;points=[];fillColor=none;strokeColor=none;rounded=1;rotation=0;fontSize=9;fontColor=#1A1A1A;" parent="aAHrELg9xsdT0Ef0R614-1" vertex="1">
          <mxGeometry x="670" y="-600" width="40" height="20" as="geometry" />
        </mxCell>
        <mxCell id="-fyCOlzWIuNnIxvk7xNq-54" value="" style="edgeStyle=elbowEdgeStyle;rounded=1;orthogonalLoop=1;jettySize=auto;elbow=vertical;html=1;exitX=0.5;exitY=1;exitDx=0;exitDy=0;exitPerimeter=0;entryX=0.5;entryY=0;entryDx=0;entryDy=0;entryPerimeter=0;fontSize=10;endArrow=none;" parent="aAHrELg9xsdT0Ef0R614-1" source="JJHdtYMbySOfqmpjJNIa-85" target="-fyCOlzWIuNnIxvk7xNq-53" edge="1">
          <mxGeometry relative="1" as="geometry">
            <mxPoint x="689.0899999999999" y="-750" as="sourcePoint" />
            <mxPoint x="690" y="-580" as="targetPoint" />
          </mxGeometry>
        </mxCell>
        <mxCell id="-fyCOlzWIuNnIxvk7xNq-57" value="SSH" style="text;html=1;resizable=0;autosize=1;align=center;verticalAlign=middle;points=[];fillColor=none;strokeColor=none;rounded=0;sketch=0;fontColor=#1A1A1A;fontSize=10;fontStyle=1;rotation=0;" parent="aAHrELg9xsdT0Ef0R614-1" vertex="1">
          <mxGeometry x="500" y="-370" width="40" height="20" as="geometry" />
        </mxCell>
        <mxCell id="-fyCOlzWIuNnIxvk7xNq-66" value="" style="aspect=fixed;html=1;points=[];align=center;image;fontSize=12;image=img/lib/azure2/other/SSH_Keys.svg;gradientColor=none;" parent="aAHrELg9xsdT0Ef0R614-1" vertex="1">
          <mxGeometry x="175.23" y="-475.0000000000001" width="28.34" height="25" as="geometry" />
        </mxCell>
      </root>
    </mxGraphModel>
  </diagram>
</mxfile>
